DancingScript-Regular.ufo
<glyph name="exclam" format="2">
  <advance width="260"/>
  <unicode hex="0021"/>
  <outline>
    <contour>
      <point x="93" y="291" type="curve" smooth="yes"/>
      <point x="82" y="263"/>
      <point x="56" y="195"/>
      <point x="37" y="105" type="curve"/>
      <point x="38" y="104"/>
      <point x="39" y="103"/>
      <point x="40" y="102" type="curve"/>
      <point x="143" y="266"/>
      <point x="334" y="641"/>
      <point x="334" y="697" type="curve" smooth="yes"/>
      <point x="334" y="710"/>
      <point x="325" y="720"/>
      <point x="314" y="720" type="curve" smooth="yes"/>
      <point x="250" y="720"/>
      <point x="148" y="431"/>
    </contour>
    <contour>
      <point x="11" y="-10" type="curve" smooth="yes"/>
      <point x="37" y="-10"/>
      <point x="63" y="14"/>
      <point x="63" y="34" type="curve" smooth="yes"/>
      <point x="63" y="52"/>
      <point x="53" y="58"/>
      <point x="37" y="58" type="curve" smooth="yes"/>
      <point x="11" y="58"/>
      <point x="-21" y="39"/>
      <point x="-21" y="17" type="curve" smooth="yes"/>
      <point x="-21" y="-2"/>
      <point x="-6" y="-10"/>
    </contour>
  </outline>
</glyph>
<glyph name="numbersign" format="2">
  <advance width="668"/>
  <unicode hex="0023"/>
  <outline>
    <contour>
      <point x="102" y="-162" type="curve"/>
      <point x="184" y="-162"/>
      <point x="211" y="-49"/>
      <point x="257" y="172" type="curve"/>
      <point x="383" y="172" type="line"/>
      <point x="347" y="19"/>
      <point x="307" y="-119"/>
      <point x="272" y="-162" type="curve"/>
      <point x="353" y="-162"/>
      <point x="383" y="-48"/>
      <point x="428" y="175" type="curve"/>
      <point x="457" y="176"/>
      <point x="488" y="176"/>
      <point x="524" y="176" type="curve" smooth="yes"/>
      <point x="555" y="176"/>
      <point x="588" y="177"/>
      <point x="624" y="208" type="curve"/>
      <point x="570" y="208"/>
      <point x="507" y="214"/>
      <point x="437" y="218" type="curve"/>
      <point x="440" y="237"/>
      <point x="448" y="274"/>
      <point x="452" y="294" type="curve"/>
      <point x="484" y="294"/>
      <point x="519" y="295"/>
      <point x="561" y="295" type="curve" smooth="yes"/>
      <point x="592" y="295"/>
      <point x="626" y="296"/>
      <point x="662" y="327" type="curve"/>
      <point x="604" y="327"/>
      <point x="536" y="334"/>
      <point x="460" y="338" type="curve"/>
      <point x="495" y="516"/>
      <point x="526" y="686"/>
      <point x="533" y="720" type="curve"/>
      <point x="496" y="711"/>
      <point x="492" y="694"/>
      <point x="488" y="675" type="curve" smooth="yes"/>
      <point x="472" y="600"/>
      <point x="450" y="482"/>
      <point x="420" y="340" type="curve"/>
      <point x="380" y="342"/>
      <point x="339" y="344"/>
      <point x="292" y="344" type="curve"/>
      <point x="326" y="520"/>
      <point x="356" y="686"/>
      <point x="363" y="720" type="curve"/>
      <point x="326" y="711"/>
      <point x="322" y="694"/>
      <point x="318" y="675" type="curve" smooth="yes"/>
      <point x="302" y="601"/>
      <point x="281" y="484"/>
      <point x="251" y="343" type="curve"/>
      <point x="138" y="340"/>
      <point x="50" y="323"/>
      <point x="46" y="274" type="curve"/>
      <point x="103" y="279" type="line" smooth="yes"/>
      <point x="156" y="284"/>
      <point x="197" y="286"/>
      <point x="239" y="289" type="curve"/>
      <point x="235" y="274"/>
      <point x="228" y="240"/>
      <point x="225" y="225" type="curve"/>
      <point x="106" y="222"/>
      <point x="13" y="206"/>
      <point x="9" y="155" type="curve"/>
      <point x="65" y="160" type="line" smooth="yes"/>
      <point x="123" y="165"/>
      <point x="167" y="168"/>
      <point x="212" y="170" type="curve"/>
      <point x="176" y="16"/>
      <point x="136" y="-120"/>
    </contour>
    <contour>
      <point x="394" y="221" type="line"/>
      <point x="354" y="223"/>
      <point x="311" y="225"/>
      <point x="268" y="225" type="curve"/>
      <point x="281" y="291" type="line"/>
      <point x="318" y="292"/>
      <point x="358" y="293"/>
      <point x="410" y="293" type="curve"/>
    </contour>
  </outline>
</glyph>
<glyph name="ampersand" format="2">
  <advance width="616"/>
  <unicode hex="0026"/>
  <outline>
    <contour>
      <point x="192" y="-87" type="curve" smooth="yes"/>
      <point x="362" y="-87"/>
      <point x="517" y="82"/>
      <point x="536" y="265" type="curve"/>
      <point x="552" y="265"/>
      <point x="571" y="266"/>
      <point x="594" y="266" type="curve" smooth="yes"/>
      <point x="607" y="266"/>
      <point x="621" y="267"/>
      <point x="636" y="298" type="curve"/>
      <point x="595" y="299"/>
      <point x="542" y="315"/>
      <point x="483" y="315" type="curve" smooth="yes"/>
      <point x="427" y="315"/>
      <point x="381" y="301"/>
      <point x="379" y="245" type="curve"/>
      <point x="445" y="259"/>
      <point x="468" y="262"/>
      <point x="510" y="264" type="curve"/>
      <point x="492" y="105"/>
      <point x="360" y="-53"/>
      <point x="218" y="-53" type="curve" smooth="yes"/>
      <point x="124" y="-53"/>
      <point x="90" y="26"/>
      <point x="90" y="92" type="curve" smooth="yes"/>
      <point x="90" y="198"/>
      <point x="177" y="322"/>
      <point x="311" y="344" type="curve"/>
      <point x="263" y="385"/>
      <point x="253" y="447"/>
      <point x="253" y="495" type="curve" smooth="yes"/>
      <point x="253" y="602"/>
      <point x="303" y="699"/>
      <point x="397" y="699" type="curve" smooth="yes"/>
      <point x="444" y="699"/>
      <point x="465" y="670"/>
      <point x="465" y="629" type="curve" smooth="yes"/>
      <point x="465" y="577"/>
      <point x="430" y="533"/>
      <point x="383" y="492" type="curve"/>
      <point x="391" y="475"/>
      <point x="405" y="460"/>
      <point x="420" y="460" type="curve" smooth="yes"/>
      <point x="453" y="460"/>
      <point x="496" y="538"/>
      <point x="496" y="613" type="curve" smooth="yes"/>
      <point x="496" y="682"/>
      <point x="459" y="719"/>
      <point x="387" y="719" type="curve" smooth="yes"/>
      <point x="267" y="719"/>
      <point x="180" y="618"/>
      <point x="180" y="512" type="curve" smooth="yes"/>
      <point x="180" y="456"/>
      <point x="204" y="397"/>
      <point x="256" y="354" type="curve"/>
      <point x="112" y="340"/>
      <point x="-3" y="218"/>
      <point x="-3" y="95" type="curve" smooth="yes"/>
      <point x="-3" y="-4"/>
      <point x="72" y="-87"/>
    </contour>
  </outline>
</glyph>
<glyph name="parenleft" format="2">
  <advance width="258"/>
  <unicode hex="0028"/>
  <outline>
    <contour>
      <point x="142" y="-87" type="curve"/>
      <point x="150" y="-83"/>
      <point x="157" y="-77"/>
      <point x="162" y="-66" type="curve"/>
      <point x="133" y="-18"/>
      <point x="115" y="62"/>
      <point x="115" y="162" type="curve" smooth="yes"/>
      <point x="115" y="362"/>
      <point x="187" y="594"/>
      <point x="364" y="720" type="curve"/>
      <point x="275" y="720"/>
      <point x="57" y="508"/>
      <point x="57" y="189" type="curve" smooth="yes"/>
      <point x="57" y="59"/>
      <point x="93" y="-58"/>
    </contour>
  </outline>
</glyph>
<glyph name="period" format="2">
  <advance width="214"/>
  <unicode hex="002E"/>
  <outline>
    <contour>
      <point x="40" y="-10" type="curve" smooth="yes"/>
      <point x="66" y="-10"/>
      <point x="92" y="14"/>
      <point x="92" y="34" type="curve" smooth="yes"/>
      <point x="92" y="52"/>
      <point x="82" y="58"/>
      <point x="66" y="58" type="curve" smooth="yes"/>
      <point x="40" y="58"/>
      <point x="8" y="39"/>
      <point x="8" y="17" type="curve" smooth="yes"/>
      <point x="8" y="-2"/>
      <point x="23" y="-10"/>
    </contour>
  </outline>
</glyph>
<glyph name="two" format="2">
  <advance width="559"/>
  <unicode hex="0032"/>
  <outline>
    <contour>
      <point x="398" y="-87" type="curve" smooth="yes"/>
      <point x="451" y="-87"/>
      <point x="483" y="-57"/>
      <point x="500" y="11" type="curve"/>
      <point x="468" y="-8"/>
      <point x="449" y="-14"/>
      <point x="424" y="-14" type="curve" smooth="yes"/>
      <point x="376" y="-14"/>
      <point x="308" y="1"/>
      <point x="209" y="23" type="curve"/>
      <point x="304" y="101"/>
      <point x="399" y="224"/>
      <point x="452" y="341" type="curve" smooth="yes"/>
      <point x="480" y="403"/>
      <point x="499" y="471"/>
      <point x="499" y="538" type="curve" smooth="yes"/>
      <point x="499" y="639"/>
      <point x="438" y="720"/>
      <point x="339" y="720" type="curve" smooth="yes"/>
      <point x="211" y="720"/>
      <point x="123" y="619"/>
      <point x="123" y="512" type="curve" smooth="yes"/>
      <point x="123" y="457"/>
      <point x="147" y="435"/>
      <point x="193" y="423" type="curve"/>
      <point x="195" y="423"/>
      <point x="196" y="423"/>
      <point x="198" y="423" type="curve"/>
      <point x="189" y="448"/>
      <point x="186" y="464"/>
      <point x="186" y="491" type="curve" smooth="yes"/>
      <point x="186" y="605"/>
      <point x="235" y="693"/>
      <point x="323" y="693" type="curve" smooth="yes"/>
      <point x="384" y="693"/>
      <point x="429" y="651"/>
      <point x="429" y="551" type="curve" smooth="yes"/>
      <point x="429" y="374"/>
      <point x="283" y="142"/>
      <point x="161" y="34" type="curve"/>
      <point x="121" y="42"/>
      <point x="85" y="48"/>
      <point x="56" y="48" type="curve" smooth="yes"/>
      <point x="4" y="48"/>
      <point x="-19" y="30"/>
      <point x="-19" y="0" type="curve" smooth="yes"/>
      <point x="-19" y="-32"/>
      <point x="9" y="-54"/>
      <point x="49" y="-54" type="curve" smooth="yes"/>
      <point x="83" y="-54"/>
      <point x="121" y="-38"/>
      <point x="163" y="-11" type="curve"/>
      <point x="252" y="-50"/>
      <point x="340" y="-87"/>
    </contour>
    <contour>
      <point x="48" y="-27" type="curve" smooth="yes"/>
      <point x="30" y="-27"/>
      <point x="12" y="-17"/>
      <point x="12" y="-2" type="curve" smooth="yes"/>
      <point x="12" y="7"/>
      <point x="20" y="22"/>
      <point x="47" y="22" type="curve" smooth="yes"/>
      <point x="65" y="22"/>
      <point x="92" y="15"/>
      <point x="123" y="4" type="curve"/>
      <point x="95" y="-15"/>
      <point x="69" y="-27"/>
    </contour>
  </outline>
</glyph>
<glyph name="three" format="2">
  <advance width="510"/>
  <unicode hex="0033"/>
  <outline>
    <contour>
      <point x="170" y="-87" type="curve" smooth="yes"/>
      <point x="326" y="-87"/>
      <point x="443" y="42"/>
      <point x="443" y="168" type="curve" smooth="yes"/>
      <point x="443" y="237"/>
      <point x="408" y="332"/>
      <point x="293" y="361" type="curve"/>
      <point x="391" y="387"/>
      <point x="468" y="503"/>
      <point x="468" y="591" type="curve" smooth="yes"/>
      <point x="468" y="678"/>
      <point x="394" y="720"/>
      <point x="314" y="720" type="curve" smooth="yes"/>
      <point x="224" y="720"/>
      <point x="127" y="666"/>
      <point x="127" y="569" type="curve" smooth="yes"/>
      <point x="127" y="535"/>
      <point x="139" y="490"/>
      <point x="164" y="490" type="curve" smooth="yes"/>
      <point x="178" y="490"/>
      <point x="197" y="504"/>
      <point x="204" y="518" type="curve"/>
      <point x="193" y="541"/>
      <point x="188" y="565"/>
      <point x="188" y="585" type="curve" smooth="yes"/>
      <point x="188" y="654"/>
      <point x="246" y="693"/>
      <point x="302" y="693" type="curve" smooth="yes"/>
      <point x="348" y="693"/>
      <point x="392" y="667"/>
      <point x="392" y="596" type="curve" smooth="yes"/>
      <point x="392" y="511"/>
      <point x="328" y="395"/>
      <point x="230" y="351" type="curve"/>
      <point x="313" y="329"/>
      <point x="341" y="246"/>
      <point x="341" y="168" type="curve" smooth="yes"/>
      <point x="341" y="35"/>
      <point x="258" y="-55"/>
      <point x="179" y="-55" type="curve" smooth="yes"/>
      <point x="114" y="-55"/>
      <point x="73" y="6"/>
      <point x="73" y="69" type="curve" smooth="yes"/>
      <point x="73" y="104"/>
      <point x="86" y="146"/>
      <point x="105" y="162" type="curve"/>
      <point x="100" y="163"/>
      <point x="93" y="163"/>
      <point x="87" y="163" type="curve" smooth="yes"/>
      <point x="34" y="163"/>
      <point x="6" y="106"/>
      <point x="6" y="55" type="curve" smooth="yes"/>
      <point x="6" y="-7"/>
      <point x="47" y="-87"/>
    </contour>
  </outline>
</glyph>
<glyph name="six" format="2">
  <advance width="561"/>
  <unicode hex="0036"/>
  <outline>
    <contour>
      <point x="253" y="-87" type="curve" smooth="yes"/>
      <point x="405" y="-87"/>
      <point x="512" y="29"/>
      <point x="512" y="180" type="curve" smooth="yes"/>
      <point x="512" y="315"/>
      <point x="428" y="374"/>
      <point x="329" y="374" type="curve" smooth="yes"/>
      <point x="267" y="374"/>
      <point x="204" y="350"/>
      <point x="160" y="309" type="curve"/>
      <point x="202" y="490"/>
      <point x="301" y="697"/>
      <point x="429" y="697" type="curve" smooth="yes"/>
      <point x="474" y="697"/>
      <point x="484" y="671"/>
      <point x="484" y="642" type="curve" smooth="yes"/>
      <point x="484" y="629"/>
      <point x="482" y="625"/>
      <point x="482" y="614" type="curve"/>
      <point x="519" y="625"/>
      <point x="528" y="643"/>
      <point x="528" y="662" type="curve" smooth="yes"/>
      <point x="528" y="702"/>
      <point x="488" y="720"/>
      <point x="434" y="720" type="curve" smooth="yes"/>
      <point x="202" y="720"/>
      <point x="49" y="388"/>
      <point x="49" y="160" type="curve" smooth="yes"/>
      <point x="49" y="23"/>
      <point x="104" y="-87"/>
    </contour>
    <contour>
      <point x="258" y="-55" type="curve" smooth="yes"/>
      <point x="158" y="-55"/>
      <point x="138" y="66"/>
      <point x="138" y="140" type="curve" smooth="yes"/>
      <point x="138" y="244"/>
      <point x="179" y="340"/>
      <point x="300" y="340" type="curve" smooth="yes"/>
      <point x="366" y="340"/>
      <point x="425" y="294"/>
      <point x="425" y="186" type="curve" smooth="yes"/>
      <point x="425" y="72"/>
      <point x="360" y="-55"/>
    </contour>
  </outline>
</glyph>
<glyph name="seven" format="2">
  <advance width="403"/>
  <unicode hex="0037"/>
  <outline>
    <contour>
      <point x="95" y="-87" type="curve" smooth="yes"/>
      <point x="113" y="-87"/>
      <point x="154" y="-72"/>
      <point x="175" y="-27" type="curve"/>
      <point x="166" y="-20"/>
      <point x="163" y="-6"/>
      <point x="163" y="11" type="curve" smooth="yes"/>
      <point x="163" y="99"/>
      <point x="218" y="216"/>
      <point x="252" y="299" type="curve"/>
      <point x="285" y="298"/>
      <point x="309" y="298"/>
      <point x="328" y="298" type="curve" smooth="yes"/>
      <point x="360" y="298"/>
      <point x="385" y="317"/>
      <point x="407" y="349" type="curve"/>
      <point x="399" y="347"/>
      <point x="393" y="346"/>
      <point x="375" y="346" type="curve" smooth="yes"/>
      <point x="342" y="346"/>
      <point x="313" y="349"/>
      <point x="276" y="351" type="curve"/>
      <point x="330" y="470"/>
      <point x="386" y="570"/>
      <point x="436" y="643" type="curve"/>
      <point x="456" y="665"/>
      <point x="480" y="702"/>
      <point x="490" y="718" type="curve"/>
      <point x="449" y="704"/>
      <point x="384" y="698"/>
      <point x="322" y="698" type="curve" smooth="yes"/>
      <point x="232" y="698"/>
      <point x="194" y="709"/>
      <point x="139" y="718" type="curve"/>
      <point x="131" y="703"/>
      <point x="126" y="689"/>
      <point x="126" y="676" type="curve" smooth="yes"/>
      <point x="126" y="649"/>
      <point x="150" y="629"/>
      <point x="228" y="629" type="curve" smooth="yes"/>
      <point x="273" y="629"/>
      <point x="352" y="635"/>
      <point x="389" y="635" type="curve"/>
      <point x="343" y="555"/>
      <point x="277" y="454"/>
      <point x="224" y="354" type="curve"/>
      <point x="216" y="354"/>
      <point x="208" y="354"/>
      <point x="200" y="354" type="curve"/>
      <point x="135" y="354"/>
      <point x="61" y="349"/>
      <point x="59" y="289" type="curve"/>
      <point x="92" y="294"/>
      <point x="159" y="298"/>
      <point x="195" y="299" type="curve"/>
      <point x="122" y="152"/>
      <point x="61" y="16"/>
      <point x="61" y="-42" type="curve" smooth="yes"/>
      <point x="61" y="-72"/>
      <point x="77" y="-87"/>
    </contour>
  </outline>
</glyph>
<glyph name="eight" format="2">
  <advance width="527"/>
  <unicode hex="0038"/>
  <outline>
    <contour>
      <point x="204" y="-87" type="curve" smooth="yes"/>
      <point x="328" y="-87"/>
      <point x="452" y="-7"/>
      <point x="452" y="122" type="curve" smooth="yes"/>
      <point x="452" y="214"/>
      <point x="388" y="282"/>
      <point x="326" y="349" type="curve"/>
      <point x="403" y="410"/>
      <point x="469" y="477"/>
      <point x="469" y="575" type="curve" smooth="yes"/>
      <point x="469" y="669"/>
      <point x="408" y="719"/>
      <point x="318" y="719" type="curve" smooth="yes"/>
      <point x="231" y="719"/>
      <point x="133" y="673"/>
      <point x="133" y="554" type="curve" smooth="yes"/>
      <point x="133" y="464"/>
      <point x="188" y="398"/>
      <point x="245" y="336" type="curve"/>
      <point x="142" y="259"/>
      <point x="29" y="191"/>
      <point x="29" y="77" type="curve" smooth="yes"/>
      <point x="29" y="9"/>
      <point x="69" y="-87"/>
    </contour>
    <contour>
      <point x="214" y="-48" type="curve" smooth="yes"/>
      <point x="152" y="-48"/>
      <point x="90" y="1"/>
      <point x="90" y="80" type="curve" smooth="yes"/>
      <point x="90" y="175"/>
      <point x="179" y="240"/>
      <point x="271" y="307" type="curve"/>
      <point x="323" y="250"/>
      <point x="370" y="193"/>
      <point x="370" y="118" type="curve" smooth="yes"/>
      <point x="370" y="18"/>
      <point x="287" y="-48"/>
    </contour>
    <contour>
      <point x="300" y="379" type="curve"/>
      <point x="252" y="434"/>
      <point x="211" y="492"/>
      <point x="211" y="567" type="curve" smooth="yes"/>
      <point x="211" y="659"/>
      <point x="274" y="692"/>
      <point x="319" y="692" type="curve" smooth="yes"/>
      <point x="368" y="692"/>
      <point x="411" y="654"/>
      <point x="411" y="576" type="curve" smooth="yes"/>
      <point x="411" y="493"/>
      <point x="363" y="432"/>
    </contour>
  </outline>
</glyph>
<glyph name="semicolon" format="2">
  <advance width="213"/>
  <unicode hex="003B"/>
  <outline>
    <contour>
      <point x="18" y="-88" type="curve"/>
      <point x="36" y="-49"/>
      <point x="50" y="-11"/>
      <point x="87" y="28" type="curve"/>
      <point x="87" y="43"/>
      <point x="75" y="56"/>
      <point x="62" y="56" type="curve" smooth="yes"/>
      <point x="32" y="56"/>
      <point x="1" y="-10"/>
      <point x="1" y="-51" type="curve" smooth="yes"/>
      <point x="1" y="-67"/>
      <point x="6" y="-81"/>
    </contour>
    <contour>
      <point x="102" y="240" type="curve" smooth="yes"/>
      <point x="128" y="240"/>
      <point x="154" y="264"/>
      <point x="154" y="284" type="curve" smooth="yes"/>
      <point x="154" y="302"/>
      <point x="144" y="308"/>
      <point x="128" y="308" type="curve" smooth="yes"/>
      <point x="102" y="308"/>
      <point x="70" y="289"/>
      <point x="70" y="267" type="curve" smooth="yes"/>
      <point x="70" y="248"/>
      <point x="85" y="240"/>
    </contour>
  </outline>
</glyph>
<glyph name="less" format="2">
  <advance width="310"/>
  <unicode hex="003C"/>
  <outline>
    <contour>
      <point x="180" y="44" type="curve" smooth="yes"/>
      <point x="193" y="44"/>
      <point x="203" y="53"/>
      <point x="209" y="60" type="curve"/>
      <point x="118" y="95"/>
      <point x="92" y="114"/>
      <point x="47" y="147" type="curve"/>
      <point x="114" y="182"/>
      <point x="216" y="240"/>
      <point x="216" y="294" type="curve" smooth="yes"/>
      <point x="216" y="300"/>
      <point x="213" y="313"/>
      <point x="211" y="316" type="curve"/>
      <point x="169" y="257"/>
      <point x="87" y="187"/>
      <point x="21" y="158" type="curve"/>
      <point x="31" y="118"/>
      <point x="132" y="44"/>
    </contour>
  </outline>
</glyph>
<glyph name="question" format="2">
  <advance width="437"/>
  <unicode hex="003F"/>
  <outline>
    <contour>
      <point x="233" y="124" type="curve"/>
      <point x="247" y="157"/>
      <point x="245" y="192"/>
      <point x="258" y="237" type="curve" smooth="yes"/>
      <point x="302" y="392"/>
      <point x="453" y="441"/>
      <point x="453" y="587" type="curve" smooth="yes"/>
      <point x="453" y="673"/>
      <point x="401" y="720"/>
      <point x="318" y="720" type="curve" smooth="yes"/>
      <point x="194" y="720"/>
      <point x="108" y="613"/>
      <point x="108" y="500" type="curve" smooth="yes"/>
      <point x="108" y="460"/>
      <point x="119" y="431"/>
      <point x="170" y="423" type="curve"/>
      <point x="166" y="442"/>
      <point x="163" y="457"/>
      <point x="163" y="480" type="curve" smooth="yes"/>
      <point x="163" y="597"/>
      <point x="244" y="692"/>
      <point x="314" y="692" type="curve" smooth="yes"/>
      <point x="359" y="692"/>
      <point x="393" y="654"/>
      <point x="393" y="579" type="curve" smooth="yes"/>
      <point x="393" y="402"/>
      <point x="202" y="330"/>
      <point x="202" y="171" type="curve" smooth="yes"/>
      <point x="202" y="145"/>
      <point x="207" y="137"/>
    </contour>
    <contour>
      <point x="192" y="-10" type="curve" smooth="yes"/>
      <point x="218" y="-10"/>
      <point x="244" y="13"/>
      <point x="244" y="36" type="curve" smooth="yes"/>
      <point x="244" y="51"/>
      <point x="234" y="58"/>
      <point x="218" y="58" type="curve" smooth="yes"/>
      <point x="192" y="58"/>
      <point x="160" y="40"/>
      <point x="160" y="16" type="curve" smooth="yes"/>
      <point x="160" y="-1"/>
      <point x="175" y="-10"/>
    </contour>
  </outline>
</glyph>
<glyph name="E" format="2">
  <advance width="498"/>
  <unicode hex="0045"/>
  <anchor x="348" y="-28" name="ogonek"/>
  <outline>
    <contour>
      <point x="180" y="-87" type="curve" smooth="yes"/>
      <point x="314" y="-87"/>
      <point x="422" y="16"/>
      <point x="492" y="152" type="curve"/>
      <point x="478" y="162" type="line"/>
      <point x="425" y="48"/>
      <point x="312" y="-53"/>
      <point x="206" y="-53" type="curve" smooth="yes"/>
      <point x="112" y="-53"/>
      <point x="78" y="26"/>
      <point x="78" y="92" type="curve" smooth="yes"/>
      <point x="78" y="198"/>
      <point x="165" y="322"/>
      <point x="299" y="344" type="curve"/>
      <point x="251" y="385"/>
      <point x="241" y="447"/>
      <point x="241" y="495" type="curve" smooth="yes"/>
      <point x="241" y="604"/>
      <point x="291" y="696"/>
      <point x="384" y="696" type="curve" smooth="yes"/>
      <point x="431" y="696"/>
      <point x="455" y="672"/>
      <point x="455" y="631" type="curve" smooth="yes"/>
      <point x="455" y="579"/>
      <point x="418" y="533"/>
      <point x="371" y="492" type="curve"/>
      <point x="379" y="475"/>
      <point x="393" y="460"/>
      <point x="408" y="460" type="curve" smooth="yes"/>
      <point x="441" y="460"/>
      <point x="488" y="536"/>
      <point x="488" y="611" type="curve" smooth="yes"/>
      <point x="488" y="680"/>
      <point x="448" y="719"/>
      <point x="374" y="719" type="curve" smooth="yes"/>
      <point x="255" y="719"/>
      <point x="168" y="618"/>
      <point x="168" y="512" type="curve" smooth="yes"/>
      <point x="168" y="456"/>
      <point x="192" y="397"/>
      <point x="244" y="354" type="curve"/>
      <point x="100" y="340"/>
      <point x="-15" y="218"/>
      <point x="-15" y="95" type="curve" smooth="yes"/>
      <point x="-15" y="-4"/>
      <point x="60" y="-87"/>
    </contour>
  </outline>
</glyph>
<glyph name="F" format="2">
  <advance width="482"/>
  <unicode hex="0046"/>
  <outline>
    <contour>
      <point x="152" y="-87" type="curve"/>
      <point x="153" y="-12"/>
      <point x="177" y="77"/>
      <point x="206" y="180" type="curve" smooth="yes"/>
      <point x="213" y="204"/>
      <point x="235" y="280"/>
      <point x="248" y="323" type="curve"/>
      <point x="396" y="326"/>
      <point x="416" y="327"/>
      <point x="438" y="358" type="curve"/>
      <point x="390" y="359"/>
      <point x="330" y="370"/>
      <point x="263" y="374" type="curve"/>
      <point x="296" y="478"/>
      <point x="332" y="591"/>
      <point x="359" y="657" type="curve"/>
      <point x="420" y="651"/>
      <point x="470" y="640"/>
      <point x="501" y="640" type="curve" smooth="yes"/>
      <point x="536" y="640"/>
      <point x="565" y="654"/>
      <point x="614" y="710" type="curve"/>
      <point x="590" y="703"/>
      <point x="568" y="700"/>
      <point x="540" y="700" type="curve" smooth="yes"/>
      <point x="477" y="700"/>
      <point x="411" y="715"/>
      <point x="341" y="715" type="curve" smooth="yes"/>
      <point x="189" y="715"/>
      <point x="66" y="643"/>
      <point x="66" y="539" type="curve" smooth="yes"/>
      <point x="66" y="497"/>
      <point x="86" y="469"/>
      <point x="132" y="461" type="curve"/>
      <point x="123" y="487"/>
      <point x="119" y="510"/>
      <point x="119" y="540" type="curve" smooth="yes"/>
      <point x="119" y="623"/>
      <point x="150" y="662"/>
      <point x="279" y="662" type="curve" smooth="yes"/>
      <point x="292" y="662"/>
      <point x="305" y="661"/>
      <point x="318" y="660" type="curve"/>
      <point x="279" y="579"/>
      <point x="239" y="477"/>
      <point x="202" y="375" type="curve"/>
      <point x="130" y="373"/>
      <point x="74" y="356"/>
      <point x="71" y="305" type="curve"/>
      <point x="135" y="314"/>
      <point x="158" y="317"/>
      <point x="182" y="319" type="curve"/>
      <point x="136" y="194"/>
      <point x="84" y="63"/>
      <point x="84" y="-8" type="curve" smooth="yes"/>
      <point x="84" y="-52"/>
      <point x="91" y="-82"/>
    </contour>
  </outline>
</glyph>
<glyph name="H" format="2">
  <advance width="617"/>
  <unicode hex="0048"/>
  <outline>
    <contour>
      <point x="55" y="-87" type="curve"/>
      <point x="76" y="-87"/>
      <point x="110" y="-69"/>
      <point x="124" y="-23" type="curve" smooth="yes"/>
      <point x="132" y="4"/>
      <point x="182" y="165"/>
      <point x="231" y="320" type="curve"/>
      <point x="290" y="325"/>
      <point x="342" y="326"/>
      <point x="464" y="327" type="curve"/>
      <point x="441" y="252"/>
      <point x="421" y="182"/>
      <point x="411" y="142" type="curve" smooth="yes"/>
      <point x="395" y="80"/>
      <point x="387" y="26"/>
      <point x="387" y="-9" type="curve" smooth="yes"/>
      <point x="387" y="-60"/>
      <point x="404" y="-82"/>
      <point x="456" y="-87" type="curve"/>
      <point x="455" y="-78"/>
      <point x="454" y="-67"/>
      <point x="454" y="-51" type="curve" smooth="yes"/>
      <point x="454" y="-2"/>
      <point x="463" y="77"/>
      <point x="487" y="191" type="curve" smooth="yes"/>
      <point x="495" y="232"/>
      <point x="506" y="279"/>
      <point x="518" y="328" type="curve"/>
      <point x="544" y="328"/>
      <point x="572" y="329"/>
      <point x="602" y="360" type="curve"/>
      <point x="578" y="360"/>
      <point x="553" y="363"/>
      <point x="527" y="364" type="curve"/>
      <point x="562" y="500"/>
      <point x="604" y="646"/>
      <point x="632" y="720" type="curve"/>
      <point x="603" y="720"/>
      <point x="584" y="683"/>
      <point x="577" y="668" type="curve" smooth="yes"/>
      <point x="559" y="630"/>
      <point x="515" y="496"/>
      <point x="476" y="368" type="curve"/>
      <point x="425" y="373"/>
      <point x="369" y="377"/>
      <point x="306" y="377" type="curve" smooth="yes"/>
      <point x="286" y="377"/>
      <point x="266" y="376"/>
      <point x="248" y="375" type="curve"/>
      <point x="326" y="629" type="line" smooth="yes"/>
      <point x="330" y="642"/>
      <point x="334" y="657"/>
      <point x="334" y="672" type="curve" smooth="yes"/>
      <point x="334" y="696"/>
      <point x="324" y="720"/>
      <point x="288" y="720" type="curve" smooth="yes"/>
      <point x="213" y="720"/>
      <point x="88" y="618"/>
      <point x="88" y="527" type="curve" smooth="yes"/>
      <point x="88" y="495"/>
      <point x="104" y="470"/>
      <point x="148" y="470" type="curve"/>
      <point x="145" y="479"/>
      <point x="143" y="492"/>
      <point x="143" y="504" type="curve" smooth="yes"/>
      <point x="143" y="570"/>
      <point x="202" y="692"/>
      <point x="267" y="692" type="curve" smooth="yes"/>
      <point x="279" y="692"/>
      <point x="281" y="688"/>
      <point x="281" y="678" type="curve" smooth="yes"/>
      <point x="281" y="658"/>
      <point x="272" y="634"/>
      <point x="267" y="619" type="curve" smooth="yes"/>
      <point x="233" y="521"/>
      <point x="205" y="438"/>
      <point x="182" y="368" type="curve"/>
      <point x="133" y="358"/>
      <point x="100" y="340"/>
      <point x="99" y="307" type="curve"/>
      <point x="121" y="309"/>
      <point x="143" y="312"/>
      <point x="165" y="314" type="curve"/>
      <point x="94" y="96"/>
      <point x="71" y="5"/>
    </contour>
  </outline>
</glyph>
<glyph name="backslash" format="2">
  <advance width="560"/>
  <unicode hex="005C"/>
  <outline>
    <contour>
      <point x="435" y="-162" type="curve"/>
      <point x="382" y="-129"/>
      <point x="296" y="491"/>
      <point x="225" y="675" type="curve" smooth="yes"/>
      <point x="218" y="694"/>
      <point x="196" y="720"/>
      <point x="164" y="720" type="curve"/>
      <point x="186" y="663"/>
      <point x="270" y="160"/>
      <point x="308" y="22" type="curve" smooth="yes"/>
      <point x="342" y="-102"/>
      <point x="378" y="-152"/>
    </contour>
  </outline>
</glyph>
<glyph name="a" format="2">
  <advance width="436"/>
  <unicode hex="0061"/>
  <anchor x="352" y="0" name="ogonek"/>
  <outline>
    <contour>
      <point x="48" y="-47" type="curve" smooth="yes"/>
      <point x="97" y="-47"/>
      <point x="141" y="-8"/>
      <point x="199" y="69" type="curve"/>
      <point x="197" y="58"/>
      <point x="196" y="48"/>
      <point x="196" y="40" type="curve" smooth="yes"/>
      <point x="196" y="5"/>
      <point x="219" y="-30"/>
      <point x="268" y="-30" type="curve" smooth="yes"/>
      <point x="339" y="-30"/>
      <point x="424" y="44"/>
      <point x="466" y="152" type="curve"/>
      <point x="456" y="162" type="line"/>
      <point x="396" y="56"/>
      <point x="332" y="4"/>
      <point x="296" y="4" type="curve" smooth="yes"/>
      <point x="272" y="4"/>
      <point x="262" y="28"/>
      <point x="262" y="48" type="curve" smooth="yes"/>
      <point x="262" y="96"/>
      <point x="320" y="164"/>
      <point x="320" y="187" type="curve" smooth="yes"/>
      <point x="320" y="202"/>
      <point x="293" y="210"/>
      <point x="281" y="212" type="curve"/>
      <point x="280" y="212"/>
      <point x="278" y="209"/>
      <point x="276" y="206" type="curve"/>
      <point x="222" y="127"/>
      <point x="130" y="-6"/>
      <point x="70" y="-6" type="curve" smooth="yes"/>
      <point x="52" y="-6"/>
      <point x="43" y="6"/>
      <point x="43" y="33" type="curve" smooth="yes"/>
      <point x="43" y="130"/>
      <point x="155" y="316"/>
      <point x="249" y="316" type="curve" smooth="yes"/>
      <point x="285" y="316"/>
      <point x="298" y="290"/>
      <point x="298" y="260" type="curve" smooth="yes"/>
      <point x="298" y="249"/>
      <point x="296" y="236"/>
      <point x="293" y="225" type="curve"/>
      <point x="322" y="225"/>
      <point x="342" y="235"/>
      <point x="342" y="268" type="curve" smooth="yes"/>
      <point x="342" y="313"/>
      <point x="303" y="343"/>
      <point x="251" y="343" type="curve" smooth="yes"/>
      <point x="121" y="343"/>
      <point x="-26" y="155"/>
      <point x="-26" y="36" type="curve" smooth="yes"/>
      <point x="-26" y="-20"/>
      <point x="6" y="-47"/>
    </contour>
  </outline>
</glyph>
<glyph name="m" format="2">
  <advance width="646"/>
  <unicode hex="006D"/>
  <outline>
    <contour>
      <point x="504" y="-31" type="curve" smooth="yes"/>
      <point x="584" y="-31"/>
      <point x="645" y="64"/>
      <point x="677" y="148" type="curve"/>
      <point x="665" y="162" type="line"/>
      <point x="634" y="94"/>
      <point x="586" y="4"/>
      <point x="531" y="4" type="curve" smooth="yes"/>
      <point x="508" y="4"/>
      <point x="501" y="20"/>
      <point x="501" y="38" type="curve" smooth="yes"/>
      <point x="501" y="80"/>
      <point x="538" y="152"/>
      <point x="538" y="205" type="curve" smooth="yes"/>
      <point x="538" y="239"/>
      <point x="523" y="269"/>
      <point x="481" y="269" type="curve" smooth="yes"/>
      <point x="413" y="269"/>
      <point x="357" y="191"/>
      <point x="315" y="115" type="curve"/>
      <point x="326" y="142"/>
      <point x="346" y="205"/>
      <point x="346" y="256" type="curve" smooth="yes"/>
      <point x="346" y="297"/>
      <point x="333" y="332"/>
      <point x="292" y="332" type="curve" smooth="yes"/>
      <point x="220" y="332"/>
      <point x="135" y="227"/>
      <point x="81" y="142" type="curve"/>
      <point x="96" y="192"/>
      <point x="107" y="238"/>
      <point x="107" y="256" type="curve" smooth="yes"/>
      <point x="107" y="272"/>
      <point x="98" y="282"/>
      <point x="80" y="282" type="curve" smooth="yes"/>
      <point x="61" y="282"/>
      <point x="42" y="270"/>
      <point x="34" y="261" type="curve"/>
      <point x="33" y="173"/>
      <point x="-35" y="9"/>
      <point x="-35" y="-6" type="curve" smooth="yes"/>
      <point x="-35" y="-16"/>
      <point x="0" y="-27"/>
      <point x="19" y="-27" type="curve"/>
      <point x="68" y="108"/>
      <point x="188" y="266"/>
      <point x="246" y="266" type="curve" smooth="yes"/>
      <point x="264" y="266"/>
      <point x="271" y="251"/>
      <point x="271" y="228" type="curve" smooth="yes"/>
      <point x="271" y="158"/>
      <point x="208" y="16"/>
      <point x="208" y="-2" type="curve" smooth="yes"/>
      <point x="208" y="-16"/>
      <point x="243" y="-22"/>
      <point x="259" y="-22" type="curve"/>
      <point x="272" y="5"/>
      <point x="286" y="39"/>
      <point x="307" y="71" type="curve" smooth="yes"/>
      <point x="369" y="166"/>
      <point x="405" y="220"/>
      <point x="438" y="220" type="curve" smooth="yes"/>
      <point x="453" y="220"/>
      <point x="467" y="210"/>
      <point x="467" y="184" type="curve" smooth="yes"/>
      <point x="467" y="145"/>
      <point x="437" y="91"/>
      <point x="437" y="42" type="curve" smooth="yes"/>
      <point x="437" y="2"/>
      <point x="457" y="-31"/>
    </contour>
  </outline>
</glyph>
<glyph name="o" format="2">
  <advance width="365"/>
  <unicode hex="006F"/>
  <anchor x="147" y="-2" name="ogonek"/>
  <anchor x="237" y="352" name="topright"/>
  <outline>
    <contour>
      <point x="69" y="-32" type="curve" smooth="yes"/>
      <point x="119" y="-32"/>
      <point x="176" y="13"/>
      <point x="222" y="73" type="curve"/>
      <point x="237" y="66"/>
      <point x="252" y="63"/>
      <point x="270" y="63" type="curve" smooth="yes"/>
      <point x="314" y="63"/>
      <point x="369" y="86"/>
      <point x="396" y="149" type="curve"/>
      <point x="384" y="159" type="line"/>
      <point x="360" y="104"/>
      <point x="308" y="87"/>
      <point x="277" y="87" type="curve" smooth="yes"/>
      <point x="263" y="87"/>
      <point x="250" y="91"/>
      <point x="239" y="97" type="curve"/>
      <point x="278" y="155"/>
      <point x="306" y="223"/>
      <point x="306" y="275" type="curve" smooth="yes"/>
      <point x="306" y="319"/>
      <point x="291" y="352"/>
      <point x="237" y="352" type="curve" smooth="yes"/>
      <point x="174" y="352"/>
      <point x="139" y="292"/>
      <point x="139" y="226" type="curve" smooth="yes"/>
      <point x="139" y="174"/>
      <point x="160" y="120"/>
      <point x="198" y="89" type="curve"/>
      <point x="161" y="42"/>
      <point x="119" y="9"/>
      <point x="91" y="9" type="curve" smooth="yes"/>
      <point x="69" y="9"/>
      <point x="55" y="26"/>
      <point x="55" y="66" type="curve" smooth="yes"/>
      <point x="55" y="116"/>
      <point x="101" y="224"/>
      <point x="126" y="245" type="curve"/>
      <point x="119" y="248"/>
      <point x="112" y="250"/>
      <point x="105" y="250" type="curve" smooth="yes"/>
      <point x="48" y="250"/>
      <point x="-10" y="141"/>
      <point x="-10" y="59" type="curve" smooth="yes"/>
      <point x="-10" y="8"/>
      <point x="12" y="-32"/>
    </contour>
    <contour>
      <point x="216" y="115" type="curve"/>
      <point x="193" y="142"/>
      <point x="182" y="184"/>
      <point x="182" y="223" type="curve" smooth="yes"/>
      <point x="182" y="281"/>
      <point x="217" y="325"/>
      <point x="244" y="325" type="curve" smooth="yes"/>
      <point x="261" y="325"/>
      <point x="274" y="308"/>
      <point x="274" y="269" type="curve" smooth="yes"/>
      <point x="274" y="221"/>
      <point x="249" y="164"/>
    </contour>
  </outline>
</glyph>
<glyph name="v" format="2">
  <advance width="407"/>
  <unicode hex="0076"/>
  <outline>
    <contour>
      <point x="65" y="-39" type="curve" smooth="yes"/>
      <point x="129" y="-39"/>
      <point x="207" y="64"/>
      <point x="256" y="161" type="curve"/>
      <point x="265" y="96"/>
      <point x="296" y="64"/>
      <point x="340" y="64" type="curve" smooth="yes"/>
      <point x="372" y="64"/>
      <point x="410" y="81"/>
      <point x="439" y="148" type="curve"/>
      <point x="426" y="158" type="line"/>
      <point x="400" y="103"/>
      <point x="375" y="84"/>
      <point x="347" y="84" type="curve" smooth="yes"/>
      <point x="305" y="84"/>
      <point x="300" y="127"/>
      <point x="300" y="160" type="curve" smooth="yes"/>
      <point x="300" y="249"/>
      <point x="335" y="268"/>
      <point x="335" y="294" type="curve" smooth="yes"/>
      <point x="335" y="308"/>
      <point x="324" y="332"/>
      <point x="299" y="332" type="curve" smooth="yes"/>
      <point x="274" y="332"/>
      <point x="256" y="309"/>
      <point x="253" y="219" type="curve"/>
      <point x="211" y="126"/>
      <point x="137" y="0"/>
      <point x="88" y="0" type="curve" smooth="yes"/>
      <point x="70" y="0"/>
      <point x="65" y="17"/>
      <point x="65" y="56" type="curve" smooth="yes"/>
      <point x="65" y="108"/>
      <point x="74" y="173"/>
      <point x="74" y="217" type="curve" smooth="yes"/>
      <point x="74" y="242"/>
      <point x="71" y="249"/>
      <point x="48" y="249" type="curve" smooth="yes"/>
      <point x="19" y="249"/>
      <point x="18" y="238"/>
      <point x="16" y="202" type="curve" smooth="yes"/>
      <point x="11" y="109"/>
      <point x="10" y="73"/>
      <point x="10" y="71" type="curve" smooth="yes"/>
      <point x="10" y="6"/>
      <point x="23" y="-39"/>
    </contour>
  </outline>
</glyph>
<glyph name="exclamdown" format="2">
  <advance width="264"/>
  <unicode hex="00A1"/>
  <outline>
    <contour>
      <point x="-59" y="-251" type="curve" smooth="yes"/>
      <point x="5" y="-251"/>
      <point x="107" y="38"/>
      <point x="162" y="178" type="curve" smooth="yes"/>
      <point x="173" y="206"/>
      <point x="199" y="274"/>
      <point x="218" y="364" type="curve"/>
      <point x="217" y="365"/>
      <point x="216" y="366"/>
      <point x="215" y="367" type="curve"/>
      <point x="112" y="203"/>
      <point x="-79" y="-172"/>
      <point x="-79" y="-228" type="curve" smooth="yes"/>
      <point x="-79" y="-241"/>
      <point x="-70" y="-251"/>
    </contour>
    <contour>
      <point x="218" y="412" type="curve"/>
      <point x="244" y="412"/>
      <point x="276" y="430"/>
      <point x="276" y="452" type="curve" smooth="yes"/>
      <point x="276" y="471"/>
      <point x="261" y="479"/>
      <point x="244" y="479" type="curve" smooth="yes"/>
      <point x="218" y="479"/>
      <point x="192" y="455"/>
      <point x="192" y="435" type="curve" smooth="yes"/>
      <point x="192" y="417"/>
      <point x="202" y="412"/>
    </contour>
  </outline>
</glyph>
<glyph name="currency" format="2">
  <advance width="697"/>
  <unicode hex="00A4"/>
  <outline>
    <contour>
      <point x="599" y="24" type="curve"/>
      <point x="601" y="30"/>
      <point x="601" y="36"/>
      <point x="601" y="42" type="curve" smooth="yes"/>
      <point x="601" y="90"/>
      <point x="552" y="151"/>
      <point x="487" y="212" type="curve"/>
      <point x="521" y="272"/>
      <point x="541" y="344"/>
      <point x="541" y="401" type="curve" smooth="yes"/>
      <point x="541" y="406"/>
      <point x="540" y="412"/>
      <point x="540" y="417" type="curve"/>
      <point x="616" y="505"/>
      <point x="679" y="577"/>
      <point x="694" y="599" type="curve"/>
      <point x="688" y="600"/>
      <point x="682" y="601"/>
      <point x="676" y="601" type="curve" smooth="yes"/>
      <point x="593" y="601"/>
      <point x="580" y="542"/>
      <point x="526" y="478" type="curve"/>
      <point x="507" y="520"/>
      <point x="471" y="546"/>
      <point x="423" y="546" type="curve" smooth="yes"/>
      <point x="372" y="546"/>
      <point x="327" y="514"/>
      <point x="293" y="469" type="curve"/>
      <point x="217" y="553"/>
      <point x="154" y="621"/>
      <point x="136" y="638" type="curve"/>
      <point x="132" y="628"/>
      <point x="130" y="616"/>
      <point x="130" y="604" type="curve" smooth="yes"/>
      <point x="130" y="579"/>
      <point x="138" y="553"/>
      <point x="148" y="544" type="curve" smooth="yes"/>
      <point x="179" y="516"/>
      <point x="220" y="474"/>
      <point x="266" y="424" type="curve"/>
      <point x="236" y="368"/>
      <point x="220" y="302"/>
      <point x="220" y="247" type="curve" smooth="yes"/>
      <point x="220" y="223"/>
      <point x="222" y="201"/>
      <point x="229" y="180" type="curve"/>
      <point x="172" y="98"/>
      <point x="114" y="74"/>
      <point x="83" y="43" type="curve"/>
      <point x="132" y="43"/>
      <point x="191" y="68"/>
      <point x="252" y="136" type="curve"/>
      <point x="270" y="111"/>
      <point x="298" y="96"/>
      <point x="335" y="96" type="curve" smooth="yes"/>
      <point x="383" y="96"/>
      <point x="425" y="126"/>
      <point x="459" y="169" type="curve"/>
      <point x="523" y="102"/>
      <point x="580" y="58"/>
    </contour>
    <contour>
      <point x="343" y="149" type="curve" smooth="yes"/>
      <point x="314" y="149"/>
      <point x="277" y="184"/>
      <point x="277" y="237" type="curve" smooth="yes"/>
      <point x="277" y="324"/>
      <point x="341" y="496"/>
      <point x="423" y="496" type="curve" smooth="yes"/>
      <point x="455" y="496"/>
      <point x="488" y="461"/>
      <point x="488" y="412" type="curve" smooth="yes"/>
      <point x="488" y="306"/>
      <point x="411" y="149"/>
    </contour>
  </outline>
</glyph>
<glyph name="brokenbar" format="2">
  <advance width="260"/>
  <unicode hex="00A6"/>
  <outline>
    <contour>
      <point x="55" y="-132" type="curve"/>
      <point x="138" y="-132"/>
      <point x="152" y="-10"/>
      <point x="166" y="194" type="curve"/>
      <point x="166" y="203"/>
      <point x="164" y="217"/>
      <point x="154" y="217" type="curve" smooth="yes"/>
      <point x="135" y="217"/>
      <point x="117" y="206"/>
      <point x="108" y="197" type="curve"/>
      <point x="94" y="58"/>
      <point x="78" y="-71"/>
    </contour>
    <contour>
      <point x="117" y="296" type="curve"/>
      <point x="145" y="316" type="line" smooth="yes"/>
      <point x="171" y="335"/>
      <point x="177" y="370"/>
      <point x="177" y="382" type="curve" smooth="yes"/>
      <point x="177" y="487"/>
      <point x="187" y="588"/>
      <point x="187" y="640" type="curve" smooth="yes"/>
      <point x="187" y="657"/>
      <point x="182" y="687"/>
      <point x="159" y="697" type="curve"/>
      <point x="145" y="647"/>
      <point x="133" y="475"/>
    </contour>
  </outline>
</glyph>
<glyph name="logicalnot" format="2">
  <advance width="667"/>
  <unicode hex="00AC"/>
  <outline>
    <contour>
      <point x="489" y="33" type="curve"/>
      <point x="536" y="45"/>
      <point x="537" y="122"/>
      <point x="537" y="201" type="curve"/>
      <point x="563" y="206"/>
      <point x="591" y="213"/>
      <point x="615" y="224" type="curve"/>
      <point x="597" y="225"/>
      <point x="569" y="227"/>
      <point x="535" y="228" type="curve"/>
      <point x="533" y="252"/>
      <point x="530" y="271"/>
      <point x="529" y="282" type="curve"/>
      <point x="512" y="266"/>
      <point x="504" y="247"/>
      <point x="501" y="230" type="curve"/>
      <point x="455" y="232"/>
      <point x="401" y="233"/>
      <point x="346" y="233" type="curve" smooth="yes"/>
      <point x="193" y="233"/>
      <point x="68" y="224"/>
      <point x="44" y="184" type="curve"/>
      <point x="183" y="198"/>
      <point x="225" y="193"/>
      <point x="450" y="195" type="curve" smooth="yes"/>
      <point x="464" y="195"/>
      <point x="482" y="195"/>
      <point x="500" y="197" type="curve"/>
      <point x="499" y="113"/>
      <point x="502" y="89"/>
    </contour>
  </outline>
</glyph>
<glyph name="paragraph" format="2">
  <advance width="644"/>
  <unicode hex="00B6"/>
  <outline>
    <contour>
      <point x="329" y="-87" type="curve"/>
      <point x="363" y="-87"/>
      <point x="406" y="-66"/>
      <point x="417" y="-37" type="curve"/>
      <point x="422" y="-22"/>
      <point x="434" y="110"/>
      <point x="434" y="334" type="curve" smooth="yes"/>
      <point x="434" y="393"/>
      <point x="433" y="505"/>
      <point x="431" y="555" type="curve"/>
      <point x="446" y="552"/>
      <point x="459" y="549"/>
      <point x="472" y="545" type="curve"/>
      <point x="472" y="214"/>
      <point x="451" y="-76"/>
      <point x="446" y="-87" type="curve"/>
      <point x="475" y="-87"/>
      <point x="503" y="-68"/>
      <point x="514" y="-37" type="curve"/>
      <point x="519" y="-16"/>
      <point x="530" y="156"/>
      <point x="530" y="468" type="curve" smooth="yes"/>
      <point x="530" y="484"/>
      <point x="530" y="502"/>
      <point x="529" y="519" type="curve"/>
      <point x="550" y="508"/>
      <point x="564" y="498"/>
      <point x="570" y="498" type="curve" smooth="yes"/>
      <point x="578" y="498"/>
      <point x="607" y="515"/>
      <point x="611" y="525" type="curve"/>
      <point x="591" y="535"/>
      <point x="562" y="547"/>
      <point x="528" y="558" type="curve"/>
      <point x="524" y="641"/>
      <point x="515" y="716"/>
      <point x="492" y="716" type="curve" smooth="yes"/>
      <point x="484" y="716"/>
      <point x="475" y="714"/>
      <point x="466" y="708" type="curve"/>
      <point x="469" y="676"/>
      <point x="471" y="628"/>
      <point x="472" y="572" type="curve"/>
      <point x="458" y="574"/>
      <point x="444" y="577"/>
      <point x="430" y="578" type="curve"/>
      <point x="427" y="625"/>
      <point x="437" y="716"/>
      <point x="392" y="716" type="curve" smooth="yes"/>
      <point x="384" y="716"/>
      <point x="375" y="714"/>
      <point x="363" y="708" type="curve"/>
      <point x="368" y="671"/>
      <point x="371" y="627"/>
      <point x="372" y="579" type="curve"/>
      <point x="235" y="567"/>
      <point x="61" y="485"/>
      <point x="61" y="336" type="curve" smooth="yes"/>
      <point x="61" y="188"/>
      <point x="269" y="160"/>
      <point x="350" y="156" type="curve"/>
      <point x="343" y="68"/>
      <point x="334" y="-17"/>
    </contour>
  </outline>
</glyph>
<glyph name="onehalf" format="2">
  <advance width="698"/>
  <unicode hex="00BD"/>
  <outline>
    <contour>
      <point x="51" y="-87" type="curve"/>
      <point x="108" y="-87"/>
      <point x="167" y="-13"/>
      <point x="236" y="97" type="curve" smooth="yes"/>
      <point x="322" y="235"/>
      <point x="543" y="663"/>
      <point x="565" y="720" type="curve"/>
      <point x="533" y="720"/>
      <point x="488" y="694"/>
      <point x="481" y="675" type="curve" smooth="yes"/>
      <point x="410" y="491"/>
      <point x="144" y="6"/>
    </contour>
    <contour>
      <point x="382" y="8" type="curve" smooth="yes"/>
      <point x="375" y="8"/>
      <point x="368" y="12"/>
      <point x="368" y="18" type="curve" smooth="yes"/>
      <point x="368" y="22"/>
      <point x="371" y="28"/>
      <point x="382" y="28" type="curve" smooth="yes"/>
      <point x="389" y="28"/>
      <point x="400" y="26"/>
      <point x="413" y="21" type="curve"/>
      <point x="400" y="13"/>
      <point x="391" y="8"/>
    </contour>
    <contour>
      <point x="555" y="-26" type="curve" smooth="yes"/>
      <point x="585" y="-26"/>
      <point x="602" y="-8"/>
      <point x="612" y="32" type="curve"/>
      <point x="590" y="18"/>
      <point x="579" y="14"/>
      <point x="568" y="14" type="curve" smooth="yes"/>
      <point x="545" y="14"/>
      <point x="511" y="22"/>
      <point x="469" y="32" type="curve"/>
      <point x="541" y="91"/>
      <point x="610" y="198"/>
      <point x="610" y="286" type="curve" smooth="yes"/>
      <point x="610" y="337"/>
      <point x="577" y="378"/>
      <point x="526" y="378" type="curve" smooth="yes"/>
      <point x="461" y="378"/>
      <point x="415" y="327"/>
      <point x="415" y="273" type="curve" smooth="yes"/>
      <point x="415" y="245"/>
      <point x="428" y="234"/>
      <point x="453" y="227" type="curve"/>
      <point x="461" y="227" type="line"/>
      <point x="456" y="241"/>
      <point x="454" y="250"/>
      <point x="454" y="263" type="curve" smooth="yes"/>
      <point x="454" y="318"/>
      <point x="478" y="361"/>
      <point x="518" y="361" type="curve" smooth="yes"/>
      <point x="546" y="361"/>
      <point x="567" y="341"/>
      <point x="567" y="293" type="curve" smooth="yes"/>
      <point x="567" y="205"/>
      <point x="497" y="91"/>
      <point x="437" y="38" type="curve"/>
      <point x="417" y="42"/>
      <point x="401" y="45"/>
      <point x="386" y="45" type="curve" smooth="yes"/>
      <point x="357" y="45"/>
      <point x="345" y="35"/>
      <point x="345" y="19" type="curve" smooth="yes"/>
      <point x="345" y="2"/>
      <point x="361" y="-10"/>
      <point x="383" y="-10" type="curve" smooth="yes"/>
      <point x="400" y="-10"/>
      <point x="418" y="-3"/>
      <point x="439" y="11" type="curve"/>
      <point x="491" y="-11"/>
      <point x="528" y="-26"/>
    </contour>
    <contour>
      <point x="115" y="314" type="curve" smooth="yes"/>
      <point x="143" y="314"/>
      <point x="165" y="318"/>
      <point x="199" y="318" type="curve" smooth="yes"/>
      <point x="212" y="318"/>
      <point x="229" y="317"/>
      <point x="242" y="316" type="curve"/>
      <point x="236" y="347"/>
      <point x="209" y="348"/>
      <point x="177" y="347" type="curve"/>
      <point x="190" y="363"/>
      <point x="197" y="389"/>
      <point x="205" y="426" type="curve" smooth="yes"/>
      <point x="232" y="553"/>
      <point x="247" y="637"/>
      <point x="255" y="668" type="curve" smooth="yes"/>
      <point x="258" y="679"/>
      <point x="261" y="690"/>
      <point x="261" y="701" type="curve" smooth="yes"/>
      <point x="261" y="706"/>
      <point x="260" y="713"/>
      <point x="256" y="717" type="curve"/>
      <point x="250" y="717" type="line"/>
      <point x="214" y="679"/>
      <point x="162" y="640"/>
      <point x="145" y="632" type="curve"/>
      <point x="145" y="618"/>
      <point x="150" y="614"/>
      <point x="160" y="614" type="curve" smooth="yes"/>
      <point x="166" y="614"/>
      <point x="179" y="619"/>
      <point x="211" y="640" type="curve"/>
      <point x="193" y="577"/>
      <point x="174" y="412"/>
      <point x="143" y="342" type="curve"/>
      <point x="123" y="338"/>
      <point x="102" y="338"/>
      <point x="72" y="338" type="curve"/>
      <point x="83" y="322"/>
      <point x="102" y="314"/>
    </contour>
  </outline>
</glyph>
<glyph name="multiply" format="2">
  <advance width="377"/>
  <unicode hex="00D7"/>
  <outline>
    <contour>
      <point x="284" y="20" type="curve"/>
      <point x="277" y="59"/>
      <point x="251" y="93"/>
      <point x="232" y="113" type="curve" smooth="yes"/>
      <point x="179" y="166" type="line"/>
      <point x="224" y="212" type="line" smooth="yes"/>
      <point x="244" y="232"/>
      <point x="270" y="265"/>
      <point x="276" y="305" type="curve"/>
      <point x="253" y="287"/>
      <point x="201" y="243"/>
      <point x="151" y="193" type="curve"/>
      <point x="114" y="231"/>
      <point x="93" y="254"/>
      <point x="60" y="300" type="curve"/>
      <point x="57" y="294"/>
      <point x="56" y="288"/>
      <point x="56" y="282" type="curve" smooth="yes"/>
      <point x="56" y="251"/>
      <point x="84" y="211"/>
      <point x="125" y="167" type="curve"/>
      <point x="80" y="118"/>
      <point x="48" y="76"/>
      <point x="48" y="43" type="curve" smooth="yes"/>
      <point x="48" y="37"/>
      <point x="49" y="31"/>
      <point x="52" y="25" type="curve"/>
      <point x="88" y="74"/>
      <point x="109" y="97"/>
      <point x="151" y="139" type="curve"/>
      <point x="212" y="85"/>
      <point x="261" y="38"/>
    </contour>
  </outline>
</glyph>
<glyph name="ae" format="2">
  <advance width="543"/>
  <unicode hex="00E6"/>
  <outline>
    <contour>
      <point x="48" y="-47" type="curve" smooth="yes"/>
      <point x="96" y="-47"/>
      <point x="140" y="-9"/>
      <point x="197" y="66" type="curve"/>
      <point x="199" y="4"/>
      <point x="240" y="-44"/>
      <point x="319" y="-44" type="curve" smooth="yes"/>
      <point x="418" y="-44"/>
      <point x="522" y="33"/>
      <point x="576" y="153" type="curve"/>
      <point x="564" y="162" type="line"/>
      <point x="514" y="66"/>
      <point x="425" y="-15"/>
      <point x="340" y="-15" type="curve" smooth="yes"/>
      <point x="278" y="-15"/>
      <point x="261" y="28"/>
      <point x="261" y="69" type="curve" smooth="yes"/>
      <point x="261" y="79"/>
      <point x="262" y="92"/>
      <point x="265" y="105" type="curve"/>
      <point x="379" y="116"/>
      <point x="513" y="197"/>
      <point x="513" y="299" type="curve" smooth="yes"/>
      <point x="513" y="348"/>
      <point x="482" y="360"/>
      <point x="451" y="360" type="curve" smooth="yes"/>
      <point x="407" y="360"/>
      <point x="361" y="337"/>
      <point x="320" y="301" type="curve"/>
      <point x="311" y="327"/>
      <point x="288" y="343"/>
      <point x="251" y="343" type="curve" smooth="yes"/>
      <point x="121" y="343"/>
      <point x="-26" y="155"/>
      <point x="-26" y="36" type="curve" smooth="yes"/>
      <point x="-26" y="-20"/>
      <point x="6" y="-47"/>
    </contour>
    <contour>
      <point x="70" y="-6" type="curve" smooth="yes"/>
      <point x="52" y="-6"/>
      <point x="43" y="6"/>
      <point x="43" y="33" type="curve" smooth="yes"/>
      <point x="43" y="130"/>
      <point x="155" y="316"/>
      <point x="249" y="316" type="curve" smooth="yes"/>
      <point x="277" y="316"/>
      <point x="291" y="300"/>
      <point x="296" y="278" type="curve"/>
      <point x="246" y="227"/>
      <point x="208" y="159"/>
      <point x="199" y="99" type="curve"/>
      <point x="155" y="43"/>
      <point x="106" y="-6"/>
    </contour>
    <contour>
      <point x="270" y="124" type="curve"/>
      <point x="297" y="219"/>
      <point x="384" y="329"/>
      <point x="448" y="329" type="curve" smooth="yes"/>
      <point x="465" y="329"/>
      <point x="469" y="321"/>
      <point x="469" y="306" type="curve" smooth="yes"/>
      <point x="469" y="220"/>
      <point x="341" y="149"/>
    </contour>
  </outline>
</glyph>
<glyph name="Eng" format="2">
  <advance width="660"/>
  <unicode hex="014A"/>
  <outline>
    <contour>
      <point x="242" y="-236" type="curve" smooth="yes"/>
      <point x="407" y="-236"/>
      <point x="493" y="-80"/>
      <point x="548" y="107" type="curve" smooth="yes"/>
      <point x="583" y="227"/>
      <point x="640" y="464"/>
      <point x="640" y="572" type="curve" smooth="yes"/>
      <point x="640" y="649"/>
      <point x="596" y="708"/>
      <point x="510" y="708" type="curve" smooth="yes"/>
      <point x="420" y="708"/>
      <point x="353" y="644"/>
      <point x="301" y="538" type="curve"/>
      <point x="317" y="599"/>
      <point x="324" y="644"/>
      <point x="324" y="672" type="curve" smooth="yes"/>
      <point x="324" y="697"/>
      <point x="313" y="720"/>
      <point x="274" y="720" type="curve" smooth="yes"/>
      <point x="191" y="720"/>
      <point x="80" y="618"/>
      <point x="80" y="527" type="curve" smooth="yes"/>
      <point x="80" y="495"/>
      <point x="96" y="470"/>
      <point x="140" y="470" type="curve"/>
      <point x="137" y="479"/>
      <point x="135" y="492"/>
      <point x="135" y="504" type="curve" smooth="yes"/>
      <point x="135" y="570"/>
      <point x="191" y="692"/>
      <point x="247" y="692" type="curve" smooth="yes"/>
      <point x="258" y="692"/>
      <point x="264" y="686"/>
      <point x="264" y="672" type="curve" smooth="yes"/>
      <point x="264" y="603"/>
      <point x="233" y="507"/>
      <point x="215" y="443" type="curve" smooth="yes"/>
      <point x="176" y="304"/>
      <point x="84" y="9"/>
      <point x="84" y="-52" type="curve" smooth="yes"/>
      <point x="84" y="-85"/>
      <point x="121" y="-99"/>
      <point x="151" y="-99" type="curve"/>
      <point x="185" y="50"/>
      <point x="227" y="198"/>
      <point x="276" y="397" type="curve" smooth="yes"/>
      <point x="303" y="505"/>
      <point x="373" y="668"/>
      <point x="483" y="668" type="curve" smooth="yes"/>
      <point x="543" y="668"/>
      <point x="567" y="618"/>
      <point x="567" y="556" type="curve" smooth="yes"/>
      <point x="567" y="440"/>
      <point x="508" y="207"/>
      <point x="478" y="112" type="curve" smooth="yes"/>
      <point x="415" y="-90"/>
      <point x="335" y="-210"/>
      <point x="197" y="-210" type="curve" smooth="yes"/>
      <point x="185" y="-210"/>
      <point x="179" y="-213"/>
      <point x="179" y="-219" type="curve" smooth="yes"/>
      <point x="179" y="-228"/>
      <point x="204" y="-236"/>
    </contour>
  </outline>
</glyph>
<glyph name="tbar" format="2">
  <advance width="286"/>
  <unicode hex="0167"/>
  <outline>
    <contour>
      <point x="85" y="-46" type="curve" smooth="yes"/>
      <point x="179" y="-46"/>
      <point x="269" y="39"/>
      <point x="317" y="152" type="curve"/>
      <point x="304" y="162" type="line"/>
      <point x="253" y="57"/>
      <point x="183" y="-9"/>
      <point x="114" y="-9" type="curve" smooth="yes"/>
      <point x="74" y="-9"/>
      <point x="58" y="13"/>
      <point x="58" y="71" type="curve" smooth="yes"/>
      <point x="58" y="145"/>
      <point x="84" y="225"/>
      <point x="117" y="299" type="curve" smooth="yes"/>
      <point x="175" y="428"/>
      <point x="257" y="539"/>
      <point x="257" y="575" type="curve" smooth="yes"/>
      <point x="257" y="589"/>
      <point x="246" y="597"/>
      <point x="236" y="597" type="curve" smooth="yes"/>
      <point x="194" y="597"/>
      <point x="114" y="452"/>
      <point x="58" y="306" type="curve" smooth="yes"/>
      <point x="22" y="211"/>
      <point x="-4" y="114"/>
      <point x="-4" y="53" type="curve" smooth="yes"/>
      <point x="-4" y="-13"/>
      <point x="27" y="-46"/>
    </contour>
    <contour>
      <point x="186" y="218" type="curve" smooth="yes"/>
      <point x="213" y="218"/>
      <point x="249" y="222"/>
      <point x="278" y="241" type="curve"/>
      <point x="226" y="247"/>
      <point x="116" y="256"/>
      <point x="68" y="256" type="curve" smooth="yes"/>
      <point x="10" y="256"/>
      <point x="-21" y="246"/>
      <point x="-31" y="221" type="curve"/>
      <point x="-17" y="224"/>
      <point x="2" y="224"/>
      <point x="24" y="224" type="curve" smooth="yes"/>
      <point x="82" y="224"/>
      <point x="156" y="218"/>
    </contour>
    <contour>
      <point x="96" y="316" type="curve"/>
      <point x="181" y="316"/>
      <point x="239" y="320"/>
      <point x="312" y="328" type="curve"/>
      <point x="312" y="346" type="line"/>
      <point x="262" y="341"/>
      <point x="213" y="340"/>
      <point x="116" y="340" type="curve" smooth="yes"/>
      <point x="62" y="340"/>
      <point x="39" y="345"/>
      <point x="26" y="347" type="curve"/>
      <point x="26" y="329" type="line"/>
      <point x="44" y="323"/>
      <point x="41" y="324"/>
    </contour>
  </outline>
</glyph>
<glyph name="Germandbls" format="2">
  <advance width="609"/>
  <unicode hex="1E9E"/>
  <outline>
    <contour>
      <point x="130" y="-87" type="curve" smooth="yes"/>
      <point x="279" y="-87"/>
      <point x="563" y="10"/>
      <point x="563" y="205" type="curve" smooth="yes"/>
      <point x="563" y="272"/>
      <point x="531" y="358"/>
      <point x="335" y="366" type="curve"/>
      <point x="418" y="426"/>
      <point x="486" y="490"/>
      <point x="536" y="552" type="curve" smooth="yes"/>
      <point x="555" y="576"/>
      <point x="570" y="604"/>
      <point x="570" y="631" type="curve" smooth="yes"/>
      <point x="570" y="689"/>
      <point x="510" y="720"/>
      <point x="425" y="720" type="curve" smooth="yes"/>
      <point x="327" y="720"/>
      <point x="255" y="686"/>
      <point x="202" y="551" type="curve" smooth="yes"/>
      <point x="135" y="382"/>
      <point x="69" y="181"/>
      <point x="54" y="131" type="curve" smooth="yes"/>
      <point x="49" y="114"/>
      <point x="40" y="90"/>
      <point x="40" y="74" type="curve" smooth="yes"/>
      <point x="40" y="47"/>
      <point x="66" y="26"/>
      <point x="99" y="26" type="curve"/>
      <point x="130" y="131"/>
      <point x="159" y="244"/>
      <point x="191" y="354" type="curve" smooth="yes"/>
      <point x="218" y="446"/>
      <point x="241" y="516"/>
      <point x="263" y="577" type="curve" smooth="yes"/>
      <point x="297" y="672"/>
      <point x="341" y="693"/>
      <point x="413" y="693" type="curve" smooth="yes"/>
      <point x="468" y="693"/>
      <point x="520" y="674"/>
      <point x="520" y="641" type="curve" smooth="yes"/>
      <point x="520" y="619"/>
      <point x="508" y="597"/>
      <point x="494" y="577" type="curve" smooth="yes"/>
      <point x="454" y="520"/>
      <point x="391" y="453"/>
      <point x="316" y="392" type="curve" smooth="yes"/>
      <point x="307" y="384"/>
      <point x="302" y="378"/>
      <point x="302" y="369" type="curve" smooth="yes"/>
      <point x="302" y="354"/>
      <point x="315" y="349"/>
      <point x="334" y="349" type="curve" smooth="yes"/>
      <point x="423" y="349"/>
      <point x="516" y="328"/>
      <point x="516" y="223" type="curve" smooth="yes"/>
      <point x="516" y="102"/>
      <point x="348" y="-14"/>
      <point x="118" y="-14" type="curve" smooth="yes"/>
      <point x="50" y="-14"/>
      <point x="33" y="-4"/>
      <point x="24" y="-4" type="curve" smooth="yes"/>
      <point x="21" y="-4"/>
      <point x="19" y="-5"/>
      <point x="19" y="-7" type="curve" smooth="yes"/>
      <point x="19" y="-64"/>
      <point x="57" y="-87"/>
    </contour>
  </outline>
</glyph>
<glyph name="quoteright" format="2">
  <advance width="125"/>
  <unicode hex="2019"/>
  <outline>
    <contour>
      <point x="143" y="576" type="curve"/>
      <point x="167" y="613"/>
      <point x="212" y="666"/>
      <point x="212" y="692" type="curve" smooth="yes"/>
      <point x="212" y="707"/>
      <point x="200" y="720"/>
      <point x="187" y="720" type="curve"/>
      <point x="178" y="684"/>
      <point x="124" y="630"/>
      <point x="124" y="604" type="curve" smooth="yes"/>
      <point x="124" y="592"/>
      <point x="133" y="582"/>
    </contour>
  </outline>
</glyph>
<glyph name="quotedblleft" format="2">
  <advance width="254"/>
  <unicode hex="201C"/>
  <outline>
    <contour>
      <point x="305" y="576" type="curve"/>
      <point x="315" y="582"/>
      <point x="324" y="592"/>
      <point x="324" y="604" type="curve" smooth="yes"/>
      <point x="324" y="629"/>
      <point x="270" y="684"/>
      <point x="261" y="720" type="curve"/>
      <point x="248" y="720"/>
      <point x="236" y="707"/>
      <point x="236" y="692" type="curve" smooth="yes"/>
      <point x="236" y="666"/>
      <point x="281" y="613"/>
    </contour>
    <contour>
      <point x="195" y="576" type="curve"/>
      <point x="205" y="582"/>
      <point x="214" y="592"/>
      <point x="214" y="604" type="curve" smooth="yes"/>
      <point x="214" y="629"/>
      <point x="160" y="684"/>
      <point x="151" y="720" type="curve"/>
      <point x="138" y="720"/>
      <point x="126" y="707"/>
      <point x="126" y="692" type="curve" smooth="yes"/>
      <point x="126" y="666"/>
      <point x="171" y="613"/>
    </contour>
  </outline>
</glyph>
<glyph name="daggerdbl" format="2">
  <advance width="419"/>
  <unicode hex="2021"/>
  <outline>
    <contour>
      <point x="86" y="-27" type="curve"/>
      <point x="115" y="19"/>
      <point x="168" y="125"/>
      <point x="219" y="235" type="curve"/>
      <point x="247" y="235"/>
      <point x="277" y="235"/>
      <point x="330" y="236" type="curve" smooth="yes"/>
      <point x="348" y="236"/>
      <point x="368" y="237"/>
      <point x="390" y="268" type="curve"/>
      <point x="345" y="269"/>
      <point x="299" y="282"/>
      <point x="242" y="288" type="curve"/>
      <point x="268" y="344" type="line"/>
      <point x="293" y="344"/>
      <point x="314" y="344"/>
      <point x="354" y="345" type="curve" smooth="yes"/>
      <point x="372" y="345"/>
      <point x="392" y="346"/>
      <point x="414" y="377" type="curve"/>
      <point x="376" y="377"/>
      <point x="336" y="387"/>
      <point x="290" y="394" type="curve"/>
      <point x="326" y="478"/>
      <point x="351" y="547"/>
      <point x="351" y="567" type="curve" smooth="yes"/>
      <point x="351" y="580"/>
      <point x="342" y="590"/>
      <point x="333" y="590" type="curve" smooth="yes"/>
      <point x="303" y="590"/>
      <point x="262" y="507"/>
      <point x="220" y="400" type="curve"/>
      <point x="131" y="400"/>
      <point x="65" y="386"/>
      <point x="62" y="330" type="curve"/>
      <point x="96" y="335" type="line" smooth="yes"/>
      <point x="140" y="341"/>
      <point x="166" y="343"/>
      <point x="199" y="344" type="curve"/>
      <point x="179" y="291" type="line"/>
      <point x="103" y="290"/>
      <point x="41" y="275"/>
      <point x="38" y="221" type="curve"/>
      <point x="109" y="231"/>
      <point x="133" y="233"/>
      <point x="159" y="234" type="curve"/>
      <point x="116" y="106"/>
      <point x="86" y="21"/>
    </contour>
  </outline>
</glyph>
<glyph name="bullet" format="2">
  <advance width="242"/>
  <unicode hex="2022"/>
  <outline>
    <contour>
      <point x="85" y="118" type="curve" smooth="yes"/>
      <point x="121" y="118"/>
      <point x="158" y="152"/>
      <point x="158" y="180" type="curve" smooth="yes"/>
      <point x="158" y="205"/>
      <point x="133" y="224"/>
      <point x="110" y="224" type="curve" smooth="yes"/>
      <point x="74" y="224"/>
      <point x="40" y="187"/>
      <point x="40" y="156" type="curve" smooth="yes"/>
      <point x="40" y="130"/>
      <point x="61" y="118"/>
    </contour>
  </outline>
</glyph>
<glyph name="euro" format="2">
  <advance width="687"/>
  <unicode hex="20AC"/>
  <outline>
    <contour>
      <point x="321" y="-87" type="curve" smooth="yes"/>
      <point x="455" y="-87"/>
      <point x="564" y="21"/>
      <point x="631" y="152" type="curve"/>
      <point x="617" y="162" type="line"/>
      <point x="564" y="48"/>
      <point x="451" y="-53"/>
      <point x="345" y="-53" type="curve" smooth="yes"/>
      <point x="233" y="-53"/>
      <point x="195" y="54"/>
      <point x="205" y="174" type="curve"/>
      <point x="343" y="176"/>
      <point x="363" y="177"/>
      <point x="385" y="208" type="curve"/>
      <point x="337" y="209"/>
      <point x="278" y="220"/>
      <point x="212" y="224" type="curve"/>
      <point x="222" y="273" type="line"/>
      <point x="363" y="276"/>
      <point x="383" y="277"/>
      <point x="405" y="308" type="curve"/>
      <point x="358" y="309"/>
      <point x="301" y="319"/>
      <point x="237" y="323" type="curve"/>
      <point x="297" y="508"/>
      <point x="430" y="689"/>
      <point x="538" y="689" type="curve" smooth="yes"/>
      <point x="572" y="689"/>
      <point x="587" y="671"/>
      <point x="587" y="644" type="curve" smooth="yes"/>
      <point x="587" y="587"/>
      <point x="521" y="489"/>
      <point x="480" y="443" type="curve"/>
      <point x="488" y="426"/>
      <point x="500" y="420"/>
      <point x="511" y="420" type="curve" smooth="yes"/>
      <point x="566" y="420"/>
      <point x="627" y="555"/>
      <point x="627" y="633" type="curve" smooth="yes"/>
      <point x="627" y="695"/>
      <point x="589" y="719"/>
      <point x="535" y="719" type="curve" smooth="yes"/>
      <point x="384" y="719"/>
      <point x="215" y="532"/>
      <point x="150" y="324" type="curve"/>
      <point x="88" y="319"/>
      <point x="40" y="302"/>
      <point x="38" y="255" type="curve"/>
      <point x="71" y="262"/>
      <point x="103" y="266"/>
      <point x="136" y="268" type="curve"/>
      <point x="128" y="223" type="line"/>
      <point x="67" y="219"/>
      <point x="20" y="201"/>
      <point x="18" y="155" type="curve"/>
      <point x="80" y="164"/>
      <point x="102" y="167"/>
      <point x="124" y="169" type="curve"/>
      <point x="124" y="35"/>
      <point x="179" y="-87"/>
    </contour>
  </outline>
</glyph>
<glyph name="guarani" format="2">
  <advance width="555"/>
  <unicode hex="20B2"/>
  <outline>
    <contour>
      <point x="445" y="-55" type="curve"/>
      <point x="444" y="-31"/>
      <point x="441" y="-11"/>
      <point x="441" y="13" type="curve" smooth="yes"/>
      <point x="441" y="55"/>
      <point x="487" y="200"/>
      <point x="509" y="256" type="curve"/>
      <point x="480" y="272"/>
      <point x="436" y="293"/>
      <point x="400" y="293" type="curve" smooth="yes"/>
      <point x="369" y="293"/>
      <point x="344" y="280"/>
      <point x="339" y="246" type="curve"/>
      <point x="352" y="247"/>
      <point x="368" y="248"/>
      <point x="381" y="248" type="curve" smooth="yes"/>
      <point x="401" y="248"/>
      <point x="420" y="246"/>
      <point x="436" y="241" type="curve"/>
      <point x="426" y="126"/>
      <point x="341" y="-26"/>
      <point x="236" y="-26" type="curve" smooth="yes"/>
      <point x="159" y="-26"/>
      <point x="102" y="39"/>
      <point x="102" y="145" type="curve" smooth="yes"/>
      <point x="102" y="340"/>
      <point x="292" y="627"/>
      <point x="436" y="627" type="curve" smooth="yes"/>
      <point x="480" y="627"/>
      <point x="496" y="607"/>
      <point x="496" y="581" type="curve" smooth="yes"/>
      <point x="496" y="533"/>
      <point x="446" y="464"/>
      <point x="418" y="446" type="curve"/>
      <point x="426" y="431"/>
      <point x="438" y="426"/>
      <point x="449" y="426" type="curve" smooth="yes"/>
      <point x="497" y="426"/>
      <point x="537" y="493"/>
      <point x="537" y="554" type="curve" smooth="yes"/>
      <point x="537" y="606"/>
      <point x="509" y="654"/>
      <point x="433" y="654" type="curve" smooth="yes"/>
      <point x="243" y="654"/>
      <point x="22" y="389"/>
      <point x="22" y="163" type="curve" smooth="yes"/>
      <point x="22" y="25"/>
      <point x="104" y="-56"/>
      <point x="209" y="-56" type="curve" smooth="yes"/>
      <point x="288" y="-56"/>
      <point x="350" y="-11"/>
      <point x="398" y="48" type="curve"/>
      <point x="393" y="33"/>
      <point x="391" y="20"/>
      <point x="391" y="8" type="curve" smooth="yes"/>
      <point x="391" y="-24"/>
      <point x="412" y="-43"/>
    </contour>
    <contour>
      <point x="125" y="-162" type="curve"/>
      <point x="223" y="-162"/>
      <point x="249" y="16"/>
      <point x="307" y="303" type="curve" smooth="yes"/>
      <point x="335" y="442"/>
      <point x="360" y="581"/>
      <point x="386" y="720" type="curve"/>
      <point x="350" y="710"/>
      <point x="345" y="695"/>
      <point x="332" y="632" type="curve" smooth="yes"/>
      <point x="316" y="555"/>
      <point x="294" y="438"/>
      <point x="269" y="321" type="curve" smooth="yes"/>
      <point x="230" y="138"/>
      <point x="176" y="-98"/>
    </contour>
  </outline>
</glyph>
<glyph name="rupeeIndian" format="2">
  <advance width="637"/>
  <unicode hex="20B9"/>
  <outline>
    <contour>
      <point x="441" y="-84" type="curve" smooth="yes"/>
      <point x="459" y="-84"/>
      <point x="487" y="-70"/>
      <point x="492" y="-46" type="curve"/>
      <point x="326" y="71"/>
      <point x="260" y="172"/>
      <point x="179" y="300" type="curve"/>
      <point x="270" y="302"/>
      <point x="542" y="324"/>
      <point x="542" y="486" type="curve" smooth="yes"/>
      <point x="542" y="575"/>
      <point x="469" y="624"/>
      <point x="387" y="645" type="curve"/>
      <point x="400" y="624" type="line"/>
      <point x="481" y="612"/>
      <point x="528" y="597"/>
      <point x="592" y="597" type="curve" smooth="yes"/>
      <point x="639" y="597"/>
      <point x="660" y="623"/>
      <point x="669" y="656" type="curve"/>
      <point x="637" y="651"/>
      <point x="604" y="649"/>
      <point x="572" y="649" type="curve" smooth="yes"/>
      <point x="490" y="649"/>
      <point x="407" y="662"/>
      <point x="325" y="662" type="curve" smooth="yes"/>
      <point x="234" y="662"/>
      <point x="148" y="636"/>
      <point x="80" y="606" type="curve"/>
      <point x="80" y="595"/>
      <point x="102" y="576"/>
      <point x="111" y="576" type="curve" smooth="yes"/>
      <point x="129" y="576"/>
      <point x="193" y="633"/>
      <point x="330" y="633" type="curve" smooth="yes"/>
      <point x="420" y="633"/>
      <point x="475" y="580"/>
      <point x="475" y="503" type="curve" smooth="yes"/>
      <point x="475" y="380"/>
      <point x="310" y="320"/>
      <point x="162" y="320" type="curve" smooth="yes"/>
      <point x="138" y="320"/>
      <point x="127" y="310"/>
      <point x="127" y="295" type="curve" smooth="yes"/>
      <point x="127" y="284"/>
      <point x="132" y="272"/>
      <point x="138" y="262" type="curve" smooth="yes"/>
      <point x="203" y="144"/>
      <point x="358" y="-84"/>
    </contour>
    <contour>
      <point x="135" y="438" type="curve"/>
      <point x="193" y="450"/>
      <point x="263" y="455"/>
      <point x="393" y="455" type="curve" smooth="yes"/>
      <point x="563" y="455"/>
      <point x="633" y="462"/>
      <point x="642" y="498" type="curve"/>
      <point x="560" y="497"/>
      <point x="486" y="502"/>
      <point x="375" y="502" type="curve" smooth="yes"/>
      <point x="258" y="502"/>
      <point x="144" y="488"/>
    </contour>
  </outline>
</glyph>
<glyph name="trademark" format="2">
  <advance width="557"/>
  <unicode hex="2122"/>
  <outline>
    <contour>
      <point x="197" y="392" type="curve"/>
      <point x="195" y="398"/>
      <point x="195" y="400"/>
      <point x="195" y="403" type="curve" smooth="yes"/>
      <point x="195" y="469"/>
      <point x="252" y="623"/>
      <point x="277" y="686" type="curve"/>
      <point x="306" y="690"/>
      <point x="359" y="692"/>
      <point x="402" y="692" type="curve" smooth="yes"/>
      <point x="410" y="692"/>
      <point x="412" y="689"/>
      <point x="412" y="684" type="curve" smooth="yes"/>
      <point x="412" y="679"/>
      <point x="409" y="673"/>
      <point x="407" y="669" type="curve"/>
      <point x="365" y="569"/>
      <point x="324" y="486"/>
      <point x="282" y="392" type="curve"/>
      <point x="313" y="392"/>
      <point x="332" y="437"/>
      <point x="420" y="649" type="curve"/>
      <point x="420" y="600"/>
      <point x="414" y="520"/>
      <point x="414" y="476" type="curve" smooth="yes"/>
      <point x="414" y="444"/>
      <point x="418" y="426"/>
      <point x="435" y="426" type="curve" smooth="yes"/>
      <point x="438" y="426"/>
      <point x="440" y="426"/>
      <point x="444" y="430" type="curve"/>
      <point x="461" y="473"/>
      <point x="504" y="575"/>
      <point x="537" y="631" type="curve"/>
      <point x="519" y="562"/>
      <point x="504" y="495"/>
      <point x="504" y="438" type="curve" smooth="yes"/>
      <point x="504" y="405"/>
      <point x="512" y="392"/>
      <point x="545" y="392" type="curve"/>
      <point x="539" y="410"/>
      <point x="538" y="415"/>
      <point x="538" y="427" type="curve" smooth="yes"/>
      <point x="538" y="499"/>
      <point x="578" y="667"/>
      <point x="593" y="705" type="curve"/>
      <point x="588" y="709"/>
      <point x="580" y="711"/>
      <point x="576" y="711" type="curve" smooth="yes"/>
      <point x="532" y="711"/>
      <point x="488" y="564"/>
      <point x="448" y="499" type="curve"/>
      <point x="448" y="519"/>
      <point x="455" y="584"/>
      <point x="455" y="625" type="curve" smooth="yes"/>
      <point x="455" y="699"/>
      <point x="440" y="716"/>
      <point x="411" y="716" type="curve" smooth="yes"/>
      <point x="334" y="716" type="line" smooth="yes"/>
      <point x="208" y="716"/>
      <point x="142" y="711"/>
      <point x="141" y="678" type="curve"/>
      <point x="168" y="682"/>
      <point x="201" y="685"/>
      <point x="250" y="685" type="curve"/>
      <point x="206" y="592"/>
      <point x="156" y="450"/>
      <point x="156" y="422" type="curve" smooth="yes"/>
      <point x="156" y="405"/>
      <point x="166" y="392"/>
    </contour>
  </outline>
</glyph>
<glyph name="minus" format="2">
  <advance width="491"/>
  <unicode hex="2212"/>
  <outline>
    <contour>
      <point x="52" y="154" type="curve"/>
      <point x="113" y="164"/>
      <point x="144" y="165"/>
      <point x="205" y="165" type="curve" smooth="yes"/>
      <point x="306" y="165" type="line" smooth="yes"/>
      <point x="334" y="165"/>
      <point x="376" y="170"/>
      <point x="409" y="194" type="curve"/>
      <point x="380" y="197"/>
      <point x="312" y="203"/>
      <point x="241" y="203" type="curve" smooth="yes"/>
      <point x="145" y="203"/>
      <point x="67" y="194"/>
    </contour>
  </outline>
</glyph>
<glyph name="fi" format="2">
  <advance width="555"/>
  <unicode hex="FB01"/>
  <outline>
    <contour>
      <point x="-13" y="-280" type="curve" smooth="yes"/>
      <point x="64" y="-280"/>
      <point x="141" y="-94"/>
      <point x="141" y="74" type="curve" smooth="yes"/>
      <point x="141" y="94"/>
      <point x="140" y="117"/>
      <point x="137" y="138" type="curve"/>
      <point x="161" y="127"/>
      <point x="186" y="122"/>
      <point x="206" y="122" type="curve" smooth="yes"/>
      <point x="249" y="122"/>
      <point x="294" y="141"/>
      <point x="332" y="172" type="curve"/>
      <point x="317" y="128"/>
      <point x="308" y="85"/>
      <point x="308" y="58" type="curve" smooth="yes"/>
      <point x="308" y="11"/>
      <point x="333" y="-26"/>
      <point x="385" y="-26" type="curve" smooth="yes"/>
      <point x="463" y="-26"/>
      <point x="543" y="37"/>
      <point x="582" y="152" type="curve"/>
      <point x="573" y="162" type="line"/>
      <point x="516" y="48"/>
      <point x="464" y="9"/>
      <point x="419" y="9" type="curve" smooth="yes"/>
      <point x="386" y="9"/>
      <point x="370" y="21"/>
      <point x="370" y="69" type="curve" smooth="yes"/>
      <point x="370" y="163"/>
      <point x="474" y="284"/>
      <point x="474" y="317" type="curve" smooth="yes"/>
      <point x="474" y="331"/>
      <point x="464" y="339"/>
      <point x="452" y="339" type="curve" smooth="yes"/>
      <point x="415" y="339"/>
      <point x="376" y="279"/>
      <point x="348" y="213" type="curve"/>
      <point x="313" y="178"/>
      <point x="266" y="148"/>
      <point x="223" y="148" type="curve" smooth="yes"/>
      <point x="186" y="148"/>
      <point x="152" y="171"/>
      <point x="133" y="233" type="curve"/>
      <point x="129" y="244"/>
      <point x="121" y="254"/>
      <point x="110" y="258" type="curve"/>
      <point x="115" y="273"/>
      <point x="121" y="288"/>
      <point x="127" y="302" type="curve"/>
      <point x="255" y="392"/>
      <point x="394" y="562"/>
      <point x="394" y="677" type="curve" smooth="yes"/>
      <point x="394" y="700"/>
      <point x="388" y="720"/>
      <point x="360" y="720" type="curve" smooth="yes"/>
      <point x="194" y="720"/>
      <point x="-68" y="13"/>
      <point x="-68" y="-192" type="curve" smooth="yes"/>
      <point x="-68" y="-266"/>
      <point x="-34" y="-280"/>
    </contour>
    <contour>
      <point x="13" y="-232" type="curve" smooth="yes"/>
      <point x="1" y="-232"/>
      <point x="-6" y="-214"/>
      <point x="-6" y="-184" type="curve" smooth="yes"/>
      <point x="-6" y="-114"/>
      <point x="32" y="35"/>
      <point x="85" y="188" type="curve"/>
      <point x="115" y="163"/>
      <point x="115" y="109"/>
      <point x="115" y="77" type="curve" smooth="yes"/>
      <point x="115" y="-52"/>
      <point x="51" y="-232"/>
    </contour>
    <contour>
      <point x="143" y="343" type="curve"/>
      <point x="211" y="512"/>
      <point x="289" y="653"/>
      <point x="341" y="653" type="curve" smooth="yes"/>
      <point x="350" y="653"/>
      <point x="355" y="649"/>
      <point x="355" y="639" type="curve" smooth="yes"/>
      <point x="355" y="598"/>
      <point x="272" y="462"/>
    </contour>
    <contour>
      <point x="505" y="432" type="curve" smooth="yes"/>
      <point x="537" y="432"/>
      <point x="570" y="461"/>
      <point x="570" y="486" type="curve" smooth="yes"/>
      <point x="570" y="509"/>
      <point x="557" y="517"/>
      <point x="537" y="517" type="curve" smooth="yes"/>
      <point x="505" y="517"/>
      <point x="464" y="493"/>
      <point x="464" y="465" type="curve" smooth="yes"/>
      <point x="464" y="442"/>
      <point x="483" y="432"/>
    </contour>
  </outline>
</glyph>
<glyph name="fl" format="2">
  <advance width="549"/>
  <unicode hex="FB02"/>
  <outline>
    <contour>
      <point x="-13" y="-280" type="curve" smooth="yes"/>
      <point x="64" y="-280"/>
      <point x="141" y="-94"/>
      <point x="141" y="74" type="curve" smooth="yes"/>
      <point x="141" y="89"/>
      <point x="140" y="105"/>
      <point x="139" y="121" type="curve"/>
      <point x="162" y="108"/>
      <point x="188" y="102"/>
      <point x="211" y="102" type="curve" smooth="yes"/>
      <point x="247" y="102"/>
      <point x="286" y="113"/>
      <point x="322" y="133" type="curve"/>
      <point x="318" y="111"/>
      <point x="316" y="91"/>
      <point x="316" y="73" type="curve" smooth="yes"/>
      <point x="316" y="14"/>
      <point x="339" y="-30"/>
      <point x="396" y="-30" type="curve" smooth="yes"/>
      <point x="468" y="-30"/>
      <point x="531" y="40"/>
      <point x="584" y="154" type="curve"/>
      <point x="568" y="162" type="line"/>
      <point x="533" y="84"/>
      <point x="478" y="2"/>
      <point x="425" y="2" type="curve" smooth="yes"/>
      <point x="396" y="2"/>
      <point x="381" y="27"/>
      <point x="381" y="79" type="curve" smooth="yes"/>
      <point x="381" y="109"/>
      <point x="386" y="144"/>
      <point x="394" y="180" type="curve"/>
      <point x="540" y="301"/>
      <point x="660" y="557"/>
      <point x="660" y="646" type="curve" smooth="yes"/>
      <point x="660" y="674"/>
      <point x="648" y="720"/>
      <point x="627" y="720" type="curve" smooth="yes"/>
      <point x="568" y="720"/>
      <point x="375" y="375"/>
      <point x="327" y="159" type="curve"/>
      <point x="295" y="140"/>
      <point x="258" y="126"/>
      <point x="225" y="126" type="curve" smooth="yes"/>
      <point x="181" y="126"/>
      <point x="142" y="152"/>
      <point x="133" y="227" type="curve" smooth="yes"/>
      <point x="131" y="241"/>
      <point x="123" y="254"/>
      <point x="110" y="258" type="curve"/>
      <point x="115" y="273"/>
      <point x="121" y="288"/>
      <point x="127" y="302" type="curve"/>
      <point x="255" y="392"/>
      <point x="394" y="562"/>
      <point x="394" y="677" type="curve" smooth="yes"/>
      <point x="394" y="700"/>
      <point x="388" y="720"/>
      <point x="360" y="720" type="curve" smooth="yes"/>
      <point x="194" y="720"/>
      <point x="-68" y="13"/>
      <point x="-68" y="-192" type="curve" smooth="yes"/>
      <point x="-68" y="-266"/>
      <point x="-34" y="-280"/>
    </contour>
    <contour>
      <point x="13" y="-232" type="curve" smooth="yes"/>
      <point x="1" y="-232"/>
      <point x="-6" y="-214"/>
      <point x="-6" y="-184" type="curve" smooth="yes"/>
      <point x="-6" y="-115"/>
      <point x="32" y="32"/>
      <point x="84" y="184" type="curve"/>
      <point x="112" y="154"/>
      <point x="115" y="106"/>
      <point x="115" y="72" type="curve" smooth="yes"/>
      <point x="115" y="-52"/>
      <point x="51" y="-232"/>
    </contour>
    <contour>
      <point x="143" y="343" type="curve"/>
      <point x="211" y="512"/>
      <point x="289" y="653"/>
      <point x="341" y="653" type="curve" smooth="yes"/>
      <point x="350" y="653"/>
      <point x="355" y="649"/>
      <point x="355" y="639" type="curve" smooth="yes"/>
      <point x="355" y="598"/>
      <point x="272" y="462"/>
    </contour>
    <contour>
      <point x="403" y="214" type="curve"/>
      <point x="458" y="407"/>
      <point x="595" y="639"/>
      <point x="622" y="639" type="curve" smooth="yes"/>
      <point x="625" y="639"/>
      <point x="629" y="636"/>
      <point x="629" y="623" type="curve" smooth="yes"/>
      <point x="629" y="556"/>
      <point x="519" y="331"/>
    </contour>
  </outline>
</glyph>
<glyph name="F.salt" format="2">
  <advance width="453"/>
  <outline>
    <contour>
      <point x="125" y="-87" type="curve"/>
      <point x="125" y="-39"/>
      <point x="139" y="40"/>
      <point x="221" y="323" type="curve"/>
      <point x="365" y="326"/>
      <point x="385" y="327"/>
      <point x="407" y="358" type="curve"/>
      <point x="360" y="359"/>
      <point x="301" y="369"/>
      <point x="236" y="373" type="curve"/>
      <point x="269" y="480"/>
      <point x="307" y="595"/>
      <point x="333" y="661" type="curve"/>
      <point x="485" y="662" type="line" smooth="yes"/>
      <point x="512" y="662"/>
      <point x="550" y="665"/>
      <point x="582" y="697" type="curve"/>
      <point x="535" y="704"/>
      <point x="419" y="720"/>
      <point x="320" y="720" type="curve" smooth="yes"/>
      <point x="185" y="720"/>
      <point x="125" y="692"/>
      <point x="116" y="641" type="curve"/>
      <point x="175" y="652"/>
      <point x="217" y="657"/>
      <point x="286" y="659" type="curve"/>
      <point x="247" y="578"/>
      <point x="206" y="477"/>
      <point x="167" y="375" type="curve"/>
      <point x="97" y="372"/>
      <point x="42" y="355"/>
      <point x="40" y="305" type="curve"/>
      <point x="102" y="314"/>
      <point x="124" y="317"/>
      <point x="146" y="319" type="curve"/>
      <point x="99" y="194"/>
      <point x="44" y="63"/>
      <point x="44" y="-8" type="curve" smooth="yes"/>
      <point x="44" y="-52"/>
      <point x="64" y="-82"/>
    </contour>
  </outline>
</glyph>
<glyph name="caroncomb.case" format="2">
  <outline>
    <contour>
      <point x="30" y="366" type="curve" smooth="yes"/>
      <point x="57" y="366"/>
      <point x="144" y="415"/>
      <point x="144" y="454" type="curve" smooth="yes"/>
      <point x="144" y="460"/>
      <point x="142" y="468"/>
      <point x="134" y="473" type="curve"/>
      <point x="104" y="446"/>
      <point x="72" y="431"/>
      <point x="31" y="416" type="curve"/>
      <point x="-1" y="446"/>
      <point x="-24" y="470"/>
      <point x="-43" y="508" type="curve"/>
      <point x="-55" y="502"/>
      <point x="-60" y="490"/>
      <point x="-60" y="477" type="curve" smooth="yes"/>
      <point x="-60" y="434"/>
      <point x="-2" y="366"/>
    </contour>
  </outline>
</glyph>
<glyph name="circumflexcomb_acutecomb" format="2">
  <outline>
    <contour>
      <point x="159" y="451" type="curve"/>
      <point x="183" y="483"/>
      <point x="212" y="512"/>
      <point x="251" y="547" type="curve"/>
      <point x="249" y="571"/>
      <point x="240" y="578"/>
      <point x="229" y="578" type="curve" smooth="yes"/>
      <point x="194" y="578"/>
      <point x="139" y="507"/>
      <point x="139" y="480" type="curve" smooth="yes"/>
      <point x="139" y="469"/>
      <point x="145" y="457"/>
    </contour>
    <component base="circumflexcomb.case"/>
  </outline>
</glyph>
<glyph name="dblgravecomb.case" format="2">
  <outline>
    <contour>
      <point x="9" y="359" type="curve"/>
      <point x="16" y="364"/>
      <point x="20" y="371"/>
      <point x="20" y="382" type="curve" smooth="yes"/>
      <point x="20" y="410"/>
      <point x="-24" y="500"/>
      <point x="-58" y="500" type="curve" smooth="yes"/>
      <point x="-70" y="500"/>
      <point x="-79" y="492"/>
      <point x="-87" y="483" type="curve"/>
      <point x="-50" y="439"/>
      <point x="-18" y="397"/>
    </contour>
    <contour>
      <point x="75" y="364" type="curve"/>
      <point x="85" y="366"/>
      <point x="95" y="374"/>
      <point x="95" y="394" type="curve" smooth="yes"/>
      <point x="95" y="423"/>
      <point x="64" y="502"/>
      <point x="29" y="502" type="curve" smooth="yes"/>
      <point x="20" y="502"/>
      <point x="11" y="497"/>
      <point x="3" y="477" type="curve"/>
      <point x="32" y="440"/>
      <point x="57" y="399"/>
    </contour>
  </outline>
</glyph>
<glyph name="horncomb.case" format="2">
  <anchor x="0" y="470" name="_topright"/>
  <outline>
    <contour>
      <point x="105" y="414" type="curve" smooth="yes"/>
      <point x="145" y="414"/>
      <point x="170" y="446"/>
      <point x="170" y="483" type="curve" smooth="yes"/>
      <point x="170" y="520"/>
      <point x="150" y="547"/>
      <point x="123" y="547" type="curve" smooth="yes"/>
      <point x="104" y="547"/>
      <point x="92" y="539"/>
      <point x="81" y="527" type="curve"/>
      <point x="98" y="515"/>
      <point x="118" y="500"/>
      <point x="118" y="473" type="curve" smooth="yes"/>
      <point x="118" y="457"/>
      <point x="108" y="446"/>
      <point x="87" y="446" type="curve" smooth="yes"/>
      <point x="47" y="446"/>
      <point x="48" y="470"/>
      <point x="0" y="470" type="curve"/>
      <point x="-4" y="455" type="line"/>
      <point x="34" y="455"/>
      <point x="58" y="414"/>
    </contour>
  </outline>
</glyph>
<glyph name="ogonekcomb.case" format="2">
  <anchor x="0" y="0" name="_ogonek"/>
  <outline>
    <contour>
      <point x="-3" y="-146" type="curve" smooth="yes"/>
      <point x="35" y="-146"/>
      <point x="62" y="-124"/>
      <point x="63" y="-86" type="curve"/>
      <point x="47" y="-98"/>
      <point x="32" y="-103"/>
      <point x="13" y="-103" type="curve" smooth="yes"/>
      <point x="-20" y="-103"/>
      <point x="-36" y="-82"/>
      <point x="-36" y="-59" type="curve" smooth="yes"/>
      <point x="-36" y="-33"/>
      <point x="-22" y="-15"/>
      <point x="0" y="0" type="curve"/>
      <point x="-39" y="-6"/>
      <point x="-72" y="-34"/>
      <point x="-72" y="-78" type="curve" smooth="yes"/>
      <point x="-72" y="-118"/>
      <point x="-44" y="-146"/>
    </contour>
  </outline>
</glyph>
<glyph name="v_r" format="2">
  <advance width="756"/>
  <outline>
    <contour>
      <point x="65" y="-39" type="curve" smooth="yes"/>
      <point x="129" y="-39"/>
      <point x="207" y="64"/>
      <point x="256" y="161" type="curve"/>
      <point x="263" y="121"/>
      <point x="299" y="92"/>
      <point x="343" y="92" type="curve" smooth="yes"/>
      <point x="433" y="92"/>
      <point x="477" y="218"/>
      <point x="507" y="302" type="curve"/>
      <point x="532" y="284"/>
      <point x="563" y="269"/>
      <point x="563" y="226" type="curve" smooth="yes"/>
      <point x="563" y="173"/>
      <point x="508" y="98"/>
      <point x="508" y="39" type="curve" smooth="yes"/>
      <point x="508" y="0"/>
      <point x="536" y="-26"/>
      <point x="581" y="-26" type="curve" smooth="yes"/>
      <point x="666" y="-26"/>
      <point x="752" y="64"/>
      <point x="790" y="149" type="curve"/>
      <point x="777" y="159" type="line"/>
      <point x="752" y="101"/>
      <point x="670" y="10"/>
      <point x="607" y="10" type="curve" smooth="yes"/>
      <point x="591" y="10"/>
      <point x="577" y="16"/>
      <point x="577" y="40" type="curve" smooth="yes"/>
      <point x="577" y="82"/>
      <point x="627" y="148"/>
      <point x="627" y="209" type="curve" smooth="yes"/>
      <point x="627" y="294"/>
      <point x="525" y="311"/>
      <point x="525" y="348" type="curve" smooth="yes"/>
      <point x="525" y="352"/>
      <point x="536" y="378"/>
      <point x="536" y="385" type="curve" smooth="yes"/>
      <point x="536" y="392"/>
      <point x="536" y="409"/>
      <point x="522" y="409" type="curve" smooth="yes"/>
      <point x="511" y="409"/>
      <point x="480" y="381"/>
      <point x="480" y="341" type="curve" smooth="yes"/>
      <point x="480" y="331"/>
      <point x="484" y="323"/>
      <point x="490" y="317" type="curve"/>
      <point x="466" y="248"/>
      <point x="421" y="116"/>
      <point x="352" y="116" type="curve" smooth="yes"/>
      <point x="317" y="116"/>
      <point x="306" y="141"/>
      <point x="306" y="172" type="curve" smooth="yes"/>
      <point x="306" y="223"/>
      <point x="335" y="290"/>
      <point x="335" y="294" type="curve" smooth="yes"/>
      <point x="335" y="308"/>
      <point x="324" y="332"/>
      <point x="299" y="332" type="curve" smooth="yes"/>
      <point x="274" y="332"/>
      <point x="256" y="309"/>
      <point x="253" y="219" type="curve"/>
      <point x="211" y="126"/>
      <point x="137" y="0"/>
      <point x="88" y="0" type="curve" smooth="yes"/>
      <point x="70" y="0"/>
      <point x="65" y="17"/>
      <point x="65" y="56" type="curve" smooth="yes"/>
      <point x="65" y="108"/>
      <point x="74" y="173"/>
      <point x="74" y="217" type="curve" smooth="yes"/>
      <point x="74" y="242"/>
      <point x="71" y="249"/>
      <point x="48" y="249" type="curve" smooth="yes"/>
      <point x="19" y="249"/>
      <point x="18" y="238"/>
      <point x="16" y="202" type="curve" smooth="yes"/>
      <point x="11" y="109"/>
      <point x="10" y="73"/>
      <point x="10" y="71" type="curve" smooth="yes"/>
      <point x="10" y="6"/>
      <point x="23" y="-39"/>
    </contour>
  </outline>
</glyph>
